<svg width="337" height="73" viewBox="0 0 337 73" fill="none" xmlns="http://www.w3.org/2000/svg">
<path d="M222.633 68.6746C222.983 68.4797 223.373 68.3698 223.757 68.2449C224.537 67.99 225.292 67.6452 225.946 67.1554C227.236 66.1909 228.055 64.7317 228.685 63.2475C228.74 63.1126 228.795 62.9826 228.85 62.8477C228.86 62.8177 228.875 62.7927 228.885 62.7628C228.935 62.6328 228.985 62.5029 229.035 62.378C229.045 62.348 229.055 62.318 229.07 62.293C229.115 62.1781 229.155 62.0631 229.195 61.9482C229.205 61.9232 229.215 61.8982 229.22 61.8732C229.264 61.7483 229.304 61.6234 229.349 61.4984C229.364 61.4534 229.379 61.4135 229.394 61.3685C229.434 61.2486 229.474 61.1286 229.509 61.0087C229.524 60.9637 229.539 60.9137 229.554 60.8688C229.579 60.7838 229.609 60.6988 229.634 60.6139C229.649 60.5589 229.669 60.504 229.684 60.449C229.714 60.339 229.749 60.2341 229.779 60.1242C229.799 60.0592 229.814 59.9942 229.834 59.9243C229.854 59.8593 229.869 59.7893 229.889 59.7244C229.919 59.6144 229.944 59.5045 229.974 59.3995C229.989 59.3446 230.004 59.2896 230.014 59.2346C230.059 59.0597 230.099 58.8898 230.139 58.7149C230.364 57.7354 230.544 56.7459 230.689 55.7565C230.874 54.4621 230.999 53.1628 231.079 51.8635C231.158 50.6542 231.378 49.2549 231.188 48.0555C231.009 46.9561 231.183 45.7667 231.173 44.6473C231.173 44.5774 231.173 44.5124 231.173 44.4424C231.173 44.2975 231.168 44.1576 231.168 44.0127C231.168 44.0077 231.168 44.0077 231.168 44.0027C231.163 43.8627 231.163 43.7228 231.159 43.5829C231.159 43.5729 231.159 43.5629 231.159 43.5529C231.154 43.423 231.148 43.288 231.143 43.1581C231.143 43.1381 231.143 43.1181 231.138 43.0931C231.133 42.9732 231.129 42.8483 231.124 42.7283C231.124 42.6934 231.119 42.6584 231.119 42.6234C231.114 42.5135 231.109 42.4035 231.099 42.2936C231.094 42.2436 231.094 42.1886 231.089 42.1387C231.084 42.0437 231.079 41.9537 231.069 41.8588C231.064 41.7838 231.059 41.7039 231.049 41.6289C231.044 41.559 231.039 41.489 231.034 41.424C231.019 41.2741 231.009 41.1292 230.994 40.9793C230.754 38.5655 230.269 36.1668 229.429 33.893C229.379 33.7531 229.324 33.6181 229.269 33.4782C229.244 33.4183 229.225 33.3633 229.2 33.3033C229.17 33.2284 229.14 33.1534 229.11 33.0784C229.08 33.0035 229.045 32.9285 229.015 32.8536C228.995 32.7986 228.97 32.7486 228.945 32.6986C228.905 32.6137 228.87 32.5287 228.83 32.4388C228.5 31.7042 228.13 30.9895 227.715 30.2949C227.191 29.4104 226.546 28.5408 225.776 27.8562C225.746 27.8312 225.721 27.8062 225.691 27.7812C225.671 27.7662 225.651 27.7462 225.636 27.7313C225.606 27.7063 225.576 27.6813 225.546 27.6563C225.526 27.6413 225.511 27.6263 225.491 27.6113C225.461 27.5863 225.427 27.5613 225.397 27.5364C225.382 27.5214 225.362 27.5114 225.347 27.4964C225.312 27.4714 225.277 27.4464 225.242 27.4214C225.227 27.4114 225.212 27.4014 225.197 27.3914C225.157 27.3664 225.122 27.3415 225.082 27.3115C225.067 27.3015 225.057 27.2965 225.042 27.2865C225.002 27.2615 224.962 27.2365 224.922 27.2065C224.912 27.2015 224.902 27.1915 224.892 27.1865C224.847 27.1616 224.807 27.1366 224.762 27.1116C224.752 27.1066 224.742 27.1016 224.737 27.0966C224.692 27.0716 224.647 27.0466 224.597 27.0216C224.592 27.0166 224.582 27.0116 224.577 27.0116C224.527 26.9867 224.482 26.9617 224.432 26.9417C224.427 26.9367 224.422 26.9367 224.417 26.9317C224.367 26.9067 224.317 26.8867 224.267 26.8617C224.262 26.8617 224.257 26.8567 224.257 26.8567C224.207 26.8367 224.152 26.8117 224.097 26.7918C224.092 26.7918 224.092 26.7918 224.087 26.7868C224.032 26.7668 223.977 26.7468 223.922 26.7268H223.917C223.862 26.7068 223.807 26.6918 223.747 26.6718C223.747 26.6718 223.747 26.6718 223.742 26.6718C223.682 26.6568 223.627 26.6418 223.567 26.6268C223.508 26.6118 223.448 26.5969 223.388 26.5869C223.328 26.5769 223.268 26.5619 223.208 26.5569C223.173 26.5519 223.133 26.5469 223.098 26.5419C221.654 26.357 220.194 26.9417 218.75 26.7618C218.175 26.6918 217.621 26.4869 217.126 26.1871C217.071 26.1521 217.021 26.1221 216.966 26.0871C216.966 26.0871 216.961 26.0871 216.961 26.0821C216.911 26.0471 216.861 26.0122 216.811 25.9772C216.761 25.9422 216.711 25.9022 216.661 25.8622C216.656 25.8622 216.656 25.8572 216.651 25.8572C216.601 25.8173 216.556 25.7773 216.511 25.7373C216.246 25.5024 216.006 25.2326 215.812 24.9327C215.807 24.9277 215.802 24.9177 215.797 24.9127C215.777 24.8828 215.757 24.8478 215.737 24.8128C215.732 24.8028 215.722 24.7928 215.717 24.7828C215.697 24.7528 215.682 24.7228 215.662 24.6879C215.657 24.6779 215.647 24.6679 215.642 24.6529C215.617 24.6129 215.597 24.5679 215.577 24.5279C215.337 24.0582 215.192 23.5035 215.367 23.0088C215.377 22.9788 215.392 22.9488 215.402 22.9188C215.407 22.9088 215.412 22.9038 215.412 22.8938C215.422 22.8738 215.432 22.8538 215.442 22.8338C215.447 22.8239 215.452 22.8189 215.457 22.8089C215.472 22.7889 215.482 22.7639 215.497 22.7439C215.502 22.7389 215.502 22.7339 215.507 22.7289C215.527 22.7039 215.542 22.6739 215.562 22.6489C215.562 22.6489 215.562 22.6439 215.567 22.6439C215.587 22.619 215.602 22.599 215.622 22.574C215.627 22.569 215.632 22.564 215.632 22.559C215.652 22.539 215.672 22.519 215.692 22.499C215.697 22.494 215.697 22.494 215.702 22.489C215.752 22.4441 215.802 22.3991 215.852 22.3591C216.316 21.9993 216.996 21.8444 217.601 21.7444C217.965 21.6745 218.345 21.5145 218.725 21.2797C218.89 21.1797 219.05 21.0648 219.215 20.9398C219.375 20.8149 219.535 20.675 219.695 20.5251C219.849 20.3751 220.004 20.2152 220.154 20.0453C220.499 19.6455 220.804 19.2158 221.104 18.781C221.359 18.4062 221.604 18.0264 221.868 17.6566C221.998 17.4717 222.133 17.2918 222.273 17.1119C222.453 16.887 222.643 16.6721 222.843 16.4672C223.043 16.2623 223.258 16.0674 223.483 15.8825C223.538 15.8375 223.592 15.7926 223.652 15.7476C224.202 15.3178 224.802 14.963 225.437 14.7031C225.432 12.9241 225.122 11.135 224.812 9.37096C225.571 10.2305 226.336 11.0851 227.096 11.9446C227.066 10.8702 227.071 9.80073 227.131 8.7263C227.141 8.51641 227.181 8.27154 227.365 8.18158C227.545 8.09163 227.76 8.20657 227.92 8.32651C228.555 8.80626 229.025 9.4759 229.394 10.1805C229.764 10.8852 230.054 11.6298 230.394 12.3494C231.029 13.6737 231.868 14.933 232.408 16.2873C232.578 16.4372 232.738 16.5921 232.898 16.7471C233.057 16.907 233.212 17.0719 233.367 17.2368C233.452 17.3318 233.537 17.4267 233.622 17.5217C233.722 17.6316 233.817 17.7465 233.917 17.8615C233.997 17.9564 234.077 18.0514 234.152 18.1463C234.257 18.2713 234.357 18.4012 234.462 18.5261C234.532 18.6161 234.602 18.701 234.672 18.791C234.867 19.0359 235.056 19.2857 235.251 19.5356C235.281 19.5756 235.311 19.6155 235.346 19.6555C235.456 19.7955 235.561 19.9354 235.671 20.0753C235.701 20.1103 235.731 20.1503 235.761 20.1852C235.956 20.4351 236.156 20.68 236.356 20.9199C236.641 21.2597 236.935 21.5895 237.24 21.9143C237.315 21.9943 237.39 22.0742 237.47 22.1542C237.78 22.474 238.095 22.7839 238.42 23.0887C238.665 23.3136 238.909 23.5385 239.164 23.7534C239.334 23.8983 239.504 24.0382 239.674 24.1781C239.759 24.2481 239.849 24.3181 239.934 24.388C240.369 24.7328 240.813 25.0627 241.273 25.3775C242.463 26.1971 243.722 26.9117 245.031 27.5114C245.836 27.8812 246.66 28.206 247.5 28.4859C247.605 28.5208 247.71 28.5558 247.815 28.5908C248.479 28.8057 249.154 28.9856 249.839 29.1405C250.263 29.2355 250.688 29.3204 251.113 29.3904C251.113 29.3904 251.113 29.3904 251.118 29.3904C251.223 29.4104 251.328 29.4254 251.433 29.4404C251.438 29.4404 251.438 29.4404 251.443 29.4404C251.548 29.4553 251.648 29.4703 251.753 29.4853C251.758 29.4853 251.763 29.4853 251.773 29.4853C251.873 29.5003 251.972 29.5103 252.077 29.5253C252.087 29.5253 252.097 29.5253 252.107 29.5303C252.202 29.5403 252.302 29.5553 252.402 29.5653C252.417 29.5653 252.432 29.5703 252.442 29.5703C252.537 29.5803 252.627 29.5903 252.722 29.6003C252.742 29.6003 252.762 29.6053 252.782 29.6053C252.872 29.6153 252.957 29.6203 253.047 29.6303C253.072 29.6303 253.097 29.6353 253.122 29.6353C253.207 29.6403 253.287 29.6502 253.372 29.6552C253.402 29.6552 253.437 29.6602 253.467 29.6602C253.542 29.6652 253.622 29.6702 253.697 29.6752C253.737 29.6752 253.777 29.6802 253.817 29.6802C253.886 29.6852 253.956 29.6852 254.026 29.6902C254.076 29.6902 254.126 29.6952 254.176 29.6952C254.236 29.6952 254.291 29.7002 254.351 29.7002C254.416 29.7002 254.486 29.7002 254.551 29.7052C254.596 29.7052 254.636 29.7052 254.681 29.7052C254.791 29.7052 254.901 29.7052 255.011 29.7052C255.136 29.7052 255.261 29.7002 255.391 29.7002C255.441 29.7002 255.496 29.6952 255.546 29.6952C255.621 29.6902 255.691 29.6902 255.766 29.6852C255.835 29.6802 255.9 29.6802 255.97 29.6752C256.025 29.6702 256.08 29.6702 256.135 29.6652C256.215 29.6602 256.295 29.6552 256.375 29.6502C256.415 29.6452 256.46 29.6452 256.5 29.6402C256.59 29.6353 256.68 29.6253 256.77 29.6153C256.8 29.6103 256.83 29.6103 256.865 29.6053C256.965 29.5953 257.065 29.5853 257.165 29.5753C257.185 29.5753 257.205 29.5703 257.225 29.5703C257.335 29.5603 257.445 29.5453 257.555 29.5353C257.565 29.5353 257.575 29.5353 257.585 29.5303C257.704 29.5153 257.819 29.5003 257.939 29.4853C258.394 29.4254 258.849 29.3604 259.299 29.2854C260.078 29.1605 260.858 29.0206 261.637 28.8906C261.897 28.8457 262.157 28.8007 262.417 28.7607C263.067 28.6558 263.716 28.5608 264.366 28.4859C265.405 28.3659 266.445 28.296 267.484 28.3309C267.714 28.3359 267.939 28.3509 268.169 28.3609C268.224 28.3659 268.284 28.3659 268.339 28.3709C268.454 28.3809 268.569 28.3909 268.684 28.4009C268.739 28.4059 268.799 28.4109 268.854 28.4159C269.023 28.4359 269.193 28.4559 269.363 28.4759C269.478 28.4909 269.588 28.5058 269.703 28.5258C269.808 28.5408 269.913 28.5608 270.013 28.5808C270.078 28.5908 270.143 28.6058 270.208 28.6208C270.653 28.7107 271.092 28.8307 271.522 28.9856C271.627 29.0256 271.737 29.0656 271.842 29.1055C271.897 29.1255 271.947 29.1505 271.997 29.1705C272.257 29.2804 272.512 29.4054 272.762 29.5453C273.081 29.7252 273.381 29.9301 273.676 30.15C273.791 28.6208 273.476 26.9916 272.807 25.6673C271.837 23.7584 269.848 22.2891 267.704 22.3291C266.895 22.3441 266.06 22.584 265.47 23.1387C264.881 23.6934 264.581 24.5929 264.866 25.3475C265.156 26.1121 265.95 26.5769 266.745 26.7668C267.539 26.9567 268.369 26.9267 269.183 27.0366C269.993 27.1466 270.838 27.4314 271.332 28.0761C269.958 28.0211 268.584 28.1061 267.214 27.9811C265.845 27.8612 264.456 27.5164 263.351 26.6968C262.247 25.8772 261.477 24.518 261.642 23.1537C261.822 21.6395 263.107 20.4251 264.556 19.9504C266.62 19.2757 269.248 19.7305 271.267 20.4151C273.291 21.0998 275.155 22.3241 276.44 24.0482C278.214 26.4369 278.728 29.8152 277.389 32.4688C277.224 32.7936 277.019 33.1134 276.769 33.3833C277.144 33.863 277.494 34.3578 277.814 34.8725C277.909 35.0274 277.999 35.1823 278.089 35.3372C278.179 35.4922 278.264 35.6521 278.344 35.812C278.369 35.867 278.399 35.9169 278.424 35.9719C278.608 36.3517 278.768 36.7365 278.903 37.1413C278.958 37.3012 279.003 37.4611 279.048 37.626C280.068 39.575 280.238 42.0037 280.168 44.2575C280.083 47.196 279.738 50.2644 280.892 52.9679C281.542 54.4821 282.636 55.8114 283.486 57.2207C283.496 57.2357 283.501 57.2457 283.511 57.2607C283.541 57.3106 283.566 57.3556 283.596 57.4056C283.606 57.4206 283.616 57.4406 283.626 57.4556C283.651 57.5005 283.681 57.5505 283.706 57.5955C283.716 57.6105 283.721 57.6255 283.731 57.6405C283.781 57.7354 283.836 57.8304 283.881 57.9253C283.891 57.9403 283.896 57.9553 283.906 57.9753C283.926 58.0153 283.946 58.0502 283.961 58.0902C283.976 58.1202 283.991 58.1552 284.006 58.1852C284.021 58.2202 284.041 58.2551 284.056 58.2901C284.071 58.3251 284.086 58.3601 284.106 58.3951C284.121 58.43 284.136 58.465 284.151 58.5C284.166 58.54 284.185 58.575 284.2 58.6149C284.215 58.6449 284.225 58.6799 284.24 58.7099C284.26 58.7599 284.28 58.8148 284.3 58.8648C284.31 58.8848 284.315 58.9098 284.325 58.9298C284.35 58.9947 284.375 59.0647 284.395 59.1347C284.405 59.1597 284.41 59.1846 284.42 59.2096C284.435 59.2596 284.45 59.3046 284.465 59.3546C284.475 59.3845 284.48 59.4095 284.49 59.4395C284.505 59.4845 284.515 59.5345 284.525 59.5794C284.53 59.6094 284.54 59.6344 284.545 59.6644C284.555 59.7144 284.57 59.7643 284.58 59.8193C284.585 59.8443 284.59 59.8693 284.595 59.8943C284.61 59.9692 284.625 60.0492 284.635 60.1242C284.685 60.439 284.7 60.7588 284.7 61.0737C284.7 61.1386 284.7 61.1986 284.695 61.2635C284.68 61.7683 284.62 62.278 284.54 62.7827C284.53 62.8477 284.52 62.9077 284.51 62.9726C284.47 63.2275 284.425 63.4824 284.38 63.7372C284.37 63.8022 284.36 63.8622 284.345 63.9271C284.325 64.0521 284.3 64.182 284.28 64.3069C284.27 64.3719 284.26 64.4319 284.25 64.4968C284.23 64.6218 284.21 64.7517 284.195 64.8816C284.136 65.3264 284.096 65.7762 284.096 66.2209C284.096 66.3958 284.101 66.5657 284.111 66.7407C284.116 66.8506 284.126 66.9655 284.131 67.0755C284.136 67.1354 284.141 67.2004 284.146 67.2604C284.156 67.3753 284.166 67.4903 284.175 67.6052C284.205 67.95 284.23 68.2948 284.23 68.6396C284.23 68.6396 284.23 68.6397 284.23 68.6447C284.23 68.7596 284.23 68.8745 284.225 68.9895C284.21 69.3943 284.141 69.809 284.011 70.1938C283.976 70.3038 283.931 70.4137 283.881 70.5187C283.831 70.6236 283.781 70.7236 283.721 70.8235C283.631 70.9684 283.531 71.1033 283.411 71.2283C283.331 71.3132 283.246 71.3882 283.156 71.4582C282.836 71.703 282.416 71.833 282.012 71.833C281.957 71.833 281.902 71.828 281.847 71.823C281.787 71.818 281.727 71.808 281.672 71.798C281.622 71.788 281.577 71.778 281.527 71.763C281.492 71.753 281.457 71.743 281.422 71.728C281.357 71.703 281.292 71.678 281.232 71.6431C281.202 71.6281 281.177 71.6131 281.152 71.5981C281.137 71.5881 281.117 71.5781 281.102 71.5681C281.042 71.5281 280.987 71.4831 280.932 71.4332L280.927 71.4282C280.847 71.3532 280.777 71.2633 280.717 71.1633C280.682 71.3782 280.572 71.5331 280.417 71.6431C280.397 71.6581 280.378 71.6681 280.358 71.683C280.233 71.758 280.088 71.813 279.928 71.848C279.903 71.853 279.878 71.8579 279.848 71.8629C279.718 71.8879 279.578 71.8829 279.448 71.8579C279.393 71.848 279.343 71.833 279.293 71.813C279.268 71.803 279.243 71.793 279.218 71.783C279.143 71.748 279.073 71.708 279.008 71.6581C278.963 71.6281 278.923 71.5931 278.888 71.5531C278.833 71.4981 278.783 71.4332 278.743 71.3632C278.723 71.3832 278.698 71.4032 278.673 71.4182C278.638 71.4432 278.598 71.4632 278.558 71.4782C278.533 71.4881 278.503 71.4931 278.474 71.5031C278.434 71.5131 278.389 71.5131 278.344 71.5131C278.314 71.5131 278.284 71.5081 278.254 71.5031C278.194 71.4931 278.134 71.4782 278.079 71.4582C278.024 71.4332 277.964 71.4082 277.914 71.3732C277.899 71.3632 277.889 71.3532 277.874 71.3482C277.809 71.3032 277.754 71.2483 277.704 71.1883C277.694 71.1783 277.684 71.1633 277.674 71.1533C277.629 71.0884 277.594 71.0184 277.569 70.9484C277.539 70.8585 277.529 70.7685 277.524 70.6786C277.524 70.5886 277.534 70.4987 277.554 70.4087C277.629 70.1089 277.819 69.829 278.059 69.6341C278.444 69.3193 278.933 69.1644 279.403 69.0045C279.873 68.8445 280.358 68.6596 280.707 68.3048C280.987 68.02 281.142 67.6552 281.232 67.2654C281.242 67.2154 281.252 67.1604 281.262 67.1055C281.287 66.9705 281.302 66.8356 281.312 66.7007C281.312 66.6757 281.317 66.6457 281.317 66.6207C281.322 66.5657 281.322 66.5108 281.327 66.4558C281.327 66.4308 281.327 66.4008 281.327 66.3758C281.327 66.2959 281.332 66.2109 281.327 66.131C281.327 66.051 281.327 65.9711 281.322 65.8911C281.322 65.7862 281.317 65.6862 281.312 65.5813C281.312 65.5213 281.307 65.4613 281.307 65.4014C281.307 65.3614 281.302 65.3164 281.302 65.2764C281.297 65.1965 281.297 65.1165 281.292 65.0415C281.292 65.0216 281.292 64.9966 281.287 64.9766C281.282 64.8866 281.277 64.8017 281.272 64.7117C281.272 64.7017 281.272 64.6867 281.272 64.6767C281.267 64.5818 281.262 64.4868 281.252 64.3919C281.252 64.3869 281.252 64.3819 281.252 64.3769C281.247 64.277 281.237 64.182 281.227 64.0821V64.0771C281.207 63.8772 281.187 63.6773 281.167 63.4774C281.057 62.5479 280.877 61.6284 280.577 60.7438C279.063 56.2462 274.865 53.2878 272.077 49.4348C271.832 49.7097 271.597 49.9895 271.372 50.2843C270.513 51.4038 269.768 52.6481 269.218 53.9524C269.198 54.0024 269.178 54.0524 269.158 54.1023C269.078 54.3022 268.999 54.5071 268.929 54.712C268.909 54.762 268.894 54.817 268.874 54.8669C268.804 55.0718 268.739 55.2817 268.684 55.4866C268.669 55.5366 268.654 55.5915 268.639 55.6415C268.474 56.2662 268.354 56.9009 268.299 57.5405C268.294 57.5955 268.289 57.6455 268.284 57.7004C268.259 58.0203 268.254 58.3401 268.259 58.6649C268.264 58.7699 268.264 58.8798 268.274 58.9848C268.294 59.3046 268.329 59.6294 268.384 59.9492C268.424 60.1941 268.489 60.479 268.549 60.7738C268.554 60.7988 268.559 60.8288 268.564 60.8538C268.584 60.9587 268.599 61.0637 268.614 61.1686C268.614 61.1786 268.614 61.1836 268.619 61.1936C268.634 61.2985 268.644 61.3985 268.654 61.5034C268.654 61.5084 268.654 61.5084 268.654 61.5134C268.674 61.8382 268.654 62.1481 268.544 62.4129C268.499 62.5279 268.424 62.6328 268.344 62.7378C268.159 62.9626 267.909 63.1575 267.724 63.3424C267.359 63.7123 266.995 64.0821 266.64 64.4569C266.375 64.7317 266.11 65.0116 265.85 65.2914C265.765 65.3864 265.675 65.4813 265.59 65.5763C265.076 66.141 264.576 66.7207 264.096 67.3204C264.016 67.4203 263.931 67.5252 263.851 67.6302C263.761 67.7451 263.671 67.8601 263.586 67.975C263.561 68.01 263.536 68.04 263.511 68.075C263.446 68.1599 263.386 68.2449 263.326 68.3248C263.297 68.3648 263.267 68.4048 263.242 68.4448C263.182 68.5297 263.122 68.6097 263.062 68.6946C263.037 68.7296 263.012 68.7696 262.982 68.8046C262.897 68.9245 262.817 69.0444 262.732 69.1644C262.657 69.2743 262.587 69.3843 262.512 69.4942C262.437 69.6041 262.367 69.7141 262.287 69.819C262.167 69.9839 262.047 70.1489 261.912 70.2988C261.872 70.3438 261.832 70.3887 261.792 70.4287C261.428 70.8085 260.973 71.1233 260.453 71.2083C260.228 71.2483 259.988 71.2333 259.763 71.1733C259.733 71.1633 259.698 71.1533 259.668 71.1433C259.608 71.1233 259.544 71.0984 259.489 71.0684C259.314 70.9784 259.159 70.8535 259.044 70.6936C259.029 70.7186 259.014 70.7385 258.999 70.7635C258.779 71.0983 258.459 71.3582 258.054 71.3282C257.649 71.3032 257.275 71.0484 257.085 70.6936C257.075 70.6686 257.06 70.6436 257.05 70.6186C257.005 70.6536 256.955 70.6836 256.91 70.7036C256.83 70.7435 256.75 70.7635 256.665 70.7735C256.65 70.7735 256.63 70.7785 256.615 70.7785C256.55 70.7785 256.485 70.7735 256.425 70.7585C256.395 70.7485 256.365 70.7435 256.335 70.7285C256.245 70.6936 256.16 70.6436 256.085 70.5736C256.07 70.5636 256.06 70.5486 256.05 70.5386C256.025 70.5137 256.005 70.4887 255.98 70.4637C255.97 70.4487 255.96 70.4387 255.95 70.4237C255.91 70.3687 255.875 70.3038 255.85 70.2388C255.83 70.1888 255.81 70.1339 255.8 70.0789C255.745 69.839 255.775 69.5941 255.86 69.3643C255.875 69.3293 255.885 69.2943 255.905 69.2593C255.92 69.2243 255.94 69.1894 255.955 69.1594C255.975 69.1244 255.99 69.0944 256.015 69.0594C256.065 68.9795 256.125 68.8995 256.185 68.8246C256.235 68.7646 256.29 68.7096 256.345 68.6546C256.375 68.6297 256.4 68.6047 256.43 68.5797C256.46 68.5547 256.49 68.5297 256.52 68.5097C256.55 68.4847 256.58 68.4647 256.615 68.4448C256.865 68.2748 257.14 68.1499 257.425 68.04C257.495 68.015 257.57 67.985 257.64 67.96C257.819 67.895 257.999 67.8351 258.179 67.7701C258.254 67.7451 258.329 67.7151 258.409 67.6852C258.434 67.6752 258.459 67.6652 258.484 67.6552C258.534 67.6352 258.584 67.6152 258.634 67.6002C258.664 67.5902 258.694 67.5752 258.729 67.5652C258.774 67.5502 258.814 67.5302 258.859 67.5102C258.894 67.4953 258.929 67.4803 258.959 67.4653C258.999 67.4503 259.039 67.4303 259.079 67.4153C259.114 67.4003 259.149 67.3853 259.184 67.3703C259.219 67.3553 259.259 67.3353 259.294 67.3204C259.334 67.3054 259.369 67.2854 259.409 67.2704C259.439 67.2554 259.474 67.2404 259.504 67.2254C259.658 67.1504 259.813 67.0705 259.968 66.9905C259.988 66.9805 260.008 66.9705 260.033 66.9555C260.078 66.9306 260.128 66.9056 260.173 66.8756C260.193 66.8656 260.218 66.8506 260.238 66.8406C260.283 66.8156 260.333 66.7856 260.378 66.7556C260.398 66.7457 260.418 66.7307 260.438 66.7207C260.488 66.6907 260.533 66.6607 260.583 66.6307C260.598 66.6207 260.613 66.6107 260.633 66.6007C260.683 66.5707 260.733 66.5358 260.783 66.5008C260.788 66.4958 260.793 66.4908 260.803 66.4908C260.983 66.3708 261.158 66.2459 261.333 66.111C261.482 65.996 261.627 65.8761 261.772 65.7512C262.032 65.5213 262.277 65.2814 262.507 65.0216C262.677 64.8267 262.842 64.6218 262.992 64.4119C263.292 63.9921 263.551 63.5373 263.751 63.0626C263.786 62.9826 263.816 62.9027 263.846 62.8227C263.906 62.6628 263.961 62.4979 264.006 62.333C264.051 62.1781 264.091 62.0181 264.121 61.8582C264.186 61.5434 264.231 61.2236 264.256 60.8987C264.261 60.8188 264.266 60.7388 264.271 60.6589C264.381 58.6449 263.821 56.561 263.486 54.6221C263.396 54.1123 263.317 53.5976 263.242 53.0829C263.217 52.913 263.192 52.738 263.172 52.5681C263.122 52.2083 263.082 51.8435 263.037 51.4837C263.002 51.1739 262.972 50.869 262.942 50.5592C262.922 50.3693 262.907 50.1794 262.892 49.9945C262.877 49.8246 262.862 49.6497 262.852 49.4798C262.777 48.4453 262.732 47.4109 262.717 46.3714C262.707 45.6518 262.712 44.9372 262.732 44.2176C262.737 44.0926 262.737 43.9677 262.742 43.8477C262.742 43.8278 262.742 43.8078 262.742 43.7928C262.742 43.7228 262.747 43.6578 262.747 43.5879C262.747 43.5479 262.752 43.5029 262.752 43.463C262.752 43.413 262.757 43.363 262.757 43.308C262.762 43.2231 262.762 43.1431 262.767 43.0582C262.772 42.9182 262.782 42.7783 262.792 42.6384C262.727 42.6984 262.662 42.7583 262.597 42.8183C262.592 42.8233 262.582 42.8283 262.577 42.8383C260.943 44.2875 259.364 45.0071 257.24 45.6968C255.021 46.4164 252.732 46.9061 250.523 47.6607C248.809 48.2454 247.065 49 245.286 49.05C245.266 49.05 245.246 49.05 245.226 49.05C245.186 49.05 245.151 49.05 245.111 49.05C245.091 49.05 245.071 49.05 245.046 49.05C244.996 49.05 244.941 49.05 244.891 49.045C244.871 49.045 244.856 49.045 244.836 49.045C244.791 49.045 244.746 49.04 244.696 49.035C244.681 49.035 244.671 49.035 244.656 49.035C244.601 49.03 244.541 49.025 244.486 49.02C244.471 49.02 244.456 49.015 244.446 49.015C244.387 49.01 244.327 49 244.272 48.995C244.616 50.919 244.956 52.838 245.331 54.747C245.376 54.9819 245.421 55.2167 245.471 55.4516C245.481 55.5066 245.491 55.5616 245.506 55.6165C245.546 55.8164 245.586 56.0163 245.626 56.2162C245.636 56.2562 245.641 56.3012 245.651 56.3411C245.701 56.581 245.751 56.8159 245.801 57.0558C245.811 57.0908 245.816 57.1307 245.826 57.1657C245.866 57.3656 245.911 57.5655 245.956 57.7604C245.971 57.8204 245.981 57.8803 245.996 57.9403C246.041 58.1502 246.091 58.3601 246.136 58.575C246.141 58.6 246.146 58.6249 246.151 58.6499C246.206 58.8848 246.256 59.1147 246.31 59.3496C246.325 59.4045 246.335 59.4595 246.35 59.5145C246.395 59.6994 246.435 59.8843 246.48 60.0642C246.495 60.1241 246.51 60.1841 246.525 60.2441C246.58 60.479 246.64 60.7088 246.7 60.9437C246.7 60.9487 246.705 60.9587 246.705 60.9637C246.76 61.1886 246.82 61.4085 246.88 61.6334C246.895 61.6983 246.915 61.7583 246.93 61.8233C246.98 62.0032 247.025 62.1881 247.075 62.368C247.09 62.4229 247.105 62.4779 247.12 62.5329C247.185 62.7628 247.245 62.9876 247.315 63.2175C247.325 63.2625 247.34 63.3025 247.35 63.3474C247.405 63.5373 247.46 63.7222 247.515 63.9121C247.535 63.9771 247.555 64.0471 247.575 64.112C247.635 64.3019 247.69 64.4918 247.75 64.6817C247.76 64.7217 247.775 64.7617 247.785 64.8017C247.855 65.0266 247.93 65.2514 248 65.4763C248.02 65.5363 248.04 65.5913 248.06 65.6512C248.12 65.8261 248.174 66.001 248.234 66.176C248.254 66.2409 248.279 66.3059 248.299 66.3709C248.379 66.5957 248.454 66.8206 248.534 67.0455C248.814 67.8301 249.119 68.6247 249.154 69.4542C249.189 70.2888 248.914 71.1833 248.244 71.6731C247.57 72.1628 246.47 72.0678 246.051 71.3482C245.936 71.693 245.596 71.8829 245.236 71.828C244.881 71.773 244.586 71.4332 244.586 71.0734C244.352 71.4532 243.692 71.3282 243.492 70.9284C243.292 70.5287 243.467 70.0289 243.772 69.6991C244.077 69.3693 244.486 69.1644 244.861 68.9245C245.241 68.6846 245.616 68.3898 245.766 67.97C245.986 67.3703 245.696 66.7107 245.421 66.136C244.406 63.9921 243.527 61.7883 242.787 59.5395C242.732 59.3695 242.677 59.1946 242.622 59.0247C242.612 58.9848 242.597 58.9448 242.587 58.9098C242.537 58.7499 242.483 58.585 242.433 58.425C242.418 58.3751 242.403 58.3251 242.388 58.2751C242.353 58.1552 242.313 58.0402 242.278 57.9203C242.208 57.6954 242.138 57.4705 242.068 57.2457C241.708 56.0863 241.338 54.9269 240.898 53.7925C240.164 51.9135 239.209 50.0895 237.835 48.6102C237.225 48.6302 236.731 48.4803 236.196 48.1705C235.471 52.3383 234.372 56.4461 232.883 60.399C232.818 60.5739 232.753 60.7488 232.683 60.9187C232.678 60.9287 232.678 60.9337 232.673 60.9437C232.343 61.7983 231.993 62.6428 231.623 63.4824C231.603 63.5224 231.588 63.5673 231.568 63.6073C231.508 63.7422 231.448 63.8722 231.388 64.0071C231.363 64.0621 231.338 64.122 231.308 64.177C231.253 64.3019 231.193 64.4269 231.138 64.5518C231.109 64.6168 231.079 64.6817 231.049 64.7467C230.994 64.8666 230.939 64.9866 230.879 65.1065C230.844 65.1765 230.814 65.2464 230.779 65.3114C230.689 65.5013 230.599 65.6862 230.504 65.8761C230.454 65.9761 230.404 66.081 230.354 66.1809C230.309 66.2659 230.269 66.3509 230.224 66.4358C230.169 66.5408 230.119 66.6457 230.064 66.7507C230.024 66.8306 229.979 66.9156 229.939 66.9955C229.879 67.1055 229.824 67.2154 229.764 67.3253C229.724 67.4003 229.684 67.4753 229.644 67.5502C229.579 67.6752 229.514 67.7951 229.444 67.92C229.409 67.98 229.374 68.045 229.344 68.1049C229.244 68.2898 229.14 68.4747 229.04 68.6546C228.65 69.3443 228.21 70.0689 227.495 70.4187C226.781 70.7635 225.731 70.5237 225.511 69.7641C225.611 70.1139 224.207 70.4337 224.002 70.4337C223.742 70.4337 223.393 70.2038 223.173 70.2288C222.738 70.2688 222.073 70.8885 221.748 70.1938C221.514 69.6191 222.213 68.9095 222.633 68.6746Z" fill="#EE8426"/>
<path d="M55.0716 67.2351C54.6818 66.2207 54.3869 65.1762 54.187 64.1118C54.187 64.1068 54.187 64.1018 54.187 64.1018C54.1321 63.7969 54.0821 63.4921 54.0421 63.1873C54.0421 63.1773 54.0371 63.1673 54.0371 63.1573C54.0271 63.0873 54.0171 63.0124 54.0121 62.9424C54.0121 62.9374 54.0121 62.9274 54.0071 62.9224C53.9821 62.7025 53.9622 62.4876 53.9422 62.2678C53.9422 62.2478 53.9372 62.2328 53.9372 62.2128C53.9322 62.1478 53.9272 62.0829 53.9222 62.0229C53.9222 61.9979 53.9172 61.9729 53.9172 61.9529C53.9022 61.753 53.8972 61.5581 53.8872 61.3582C53.8872 61.3282 53.8872 61.2983 53.8822 61.2683C53.8822 61.2133 53.8822 61.1583 53.8772 61.1034C53.8772 61.0684 53.8772 61.0284 53.8772 60.9934C53.8772 60.9434 53.8772 60.8885 53.8772 60.8385C53.8772 60.7935 53.8772 60.7536 53.8772 60.7086C53.8772 60.6286 53.8772 60.5537 53.8822 60.4737C53.8822 60.4237 53.8822 60.3688 53.8872 60.3188C53.8872 60.2738 53.8922 60.2288 53.8922 60.1839C53.8922 60.1339 53.8972 60.0839 53.8972 60.0389C53.8972 59.994 53.9022 59.954 53.9022 59.909C53.9072 59.854 53.9072 59.7941 53.9122 59.7391C53.9122 59.7041 53.9172 59.6691 53.9172 59.6341C53.9222 59.5492 53.9272 59.4592 53.9372 59.3743C53.9422 59.3393 53.9422 59.3093 53.9472 59.2743C53.9522 59.2144 53.9572 59.1544 53.9622 59.0944C53.9672 59.0594 53.9672 59.0245 53.9721 58.9895C53.9771 58.9245 53.9871 58.8646 53.9921 58.7996C53.9971 58.7696 53.9971 58.7396 54.0021 58.7096C54.0121 58.6197 54.0221 58.5297 54.0371 58.4348C54.0421 58.4148 54.0421 58.3948 54.0471 58.3748C54.0571 58.2999 54.0671 58.2299 54.0771 58.1549C54.0821 58.1249 54.0871 58.095 54.0921 58.065C54.1021 58 54.1121 57.935 54.1221 57.8651C54.1271 57.8351 54.1321 57.8101 54.1371 57.7801C54.1521 57.6902 54.167 57.5952 54.182 57.5053C54.312 56.7906 54.4819 56.081 54.6968 55.3864C54.7867 55.0865 54.8867 54.7917 54.9916 54.5019C55.0766 54.267 55.1665 54.0321 55.2615 53.8022C55.3264 53.6473 55.3864 53.4974 55.4564 53.3475C55.6263 52.9677 55.8062 52.5929 56.0011 52.2231C56.6807 50.9337 57.5053 49.7244 58.4698 48.625C59.5392 47.4056 60.0739 45.8364 60.6586 44.2873C60.7186 44.1323 60.7736 43.9774 60.8335 43.8225C60.9385 43.5576 61.0434 43.2978 61.1534 43.0379C61.2983 42.6981 61.4582 42.3683 61.6331 42.0434C61.6381 42.0284 61.6481 42.0185 61.6531 42.0035C61.7281 41.8685 61.803 41.7386 61.883 41.6087C62.0729 41.3038 62.2628 40.999 62.4627 40.6991C64.1568 38.1005 66.1057 35.6218 67.46 32.8683C67.52 32.7484 67.575 32.6334 67.6299 32.5135C67.9098 31.9188 68.1597 31.3091 68.3745 30.6794C68.4345 30.4995 68.4995 30.3146 68.5644 30.1347C68.5694 30.1197 68.5744 30.1047 68.5794 30.0898C68.6444 29.9148 68.7094 29.7349 68.7693 29.56C68.7743 29.55 68.7743 29.545 68.7793 29.535C68.8443 29.3601 68.9093 29.1902 68.9692 29.0153C69.0392 28.8204 69.1142 28.6305 69.1841 28.4356C69.454 27.706 69.7188 26.9764 69.9487 26.2368C69.9787 26.1368 70.0087 26.0369 70.0387 25.9319C70.0437 25.917 70.0487 25.897 70.0537 25.882C70.0836 25.777 70.1136 25.6771 70.1436 25.5721V25.5671C70.1686 25.4672 70.1986 25.3672 70.2236 25.2673C70.2286 25.2473 70.2336 25.2273 70.2386 25.2023C70.2635 25.1024 70.2885 24.9974 70.3135 24.8975C70.3135 24.8925 70.3135 24.8925 70.3135 24.8875C70.3385 24.7876 70.3585 24.6926 70.3785 24.5927C70.3835 24.5677 70.3885 24.5427 70.3935 24.5227C70.4135 24.4227 70.4335 24.3178 70.4534 24.2179C70.4534 24.2129 70.4534 24.2129 70.4534 24.2079C70.4734 24.1079 70.4884 24.008 70.5034 23.913C70.5084 23.888 70.5134 23.863 70.5134 23.8331C70.5284 23.7281 70.5434 23.6282 70.5584 23.5232C70.5734 23.3883 70.5884 23.2534 70.6034 23.1184C70.8183 21.0845 70.7583 19.0256 71.0181 16.9967C71.0281 16.9167 71.0381 16.8418 71.0481 16.7618C71.0481 16.7568 71.0481 16.7518 71.0481 16.7518C71.0581 16.6768 71.0681 16.5969 71.0831 16.5219C71.1131 16.337 71.1431 16.1571 71.1781 15.9722C71.1331 15.9272 71.0881 15.8773 71.0531 15.8273C70.8882 15.5974 70.8033 15.3226 70.7233 15.0527C70.2336 13.3836 69.8937 11.6595 69.8538 9.92041C69.8138 8.18133 70.0786 6.42226 70.7633 4.8181C70.8432 4.62821 70.9382 4.43331 71.1031 4.30338C71.3929 4.0735 71.8227 4.11348 72.1625 4.2684C72.8672 4.58823 73.2969 5.29285 73.6867 5.9625C74.1565 6.76708 74.6212 7.57165 75.091 8.37623C75.4558 9.0009 75.8206 9.63056 76.1854 10.2552C77.1699 10.1353 78.1744 10.1953 79.1389 10.4151C80.0734 9.15082 81.0079 7.88648 81.9424 6.62715C82.4721 5.90753 83.0068 5.18791 83.5365 4.46829C83.6715 4.28838 83.8614 4.08349 84.0812 4.14346C84.3161 4.20343 84.3711 4.50827 84.3611 4.75314C84.2761 7.1019 82.9219 9.30573 83.0568 11.6495C83.0718 11.9094 83.1018 12.1842 83.0818 12.4441C83.2517 12.599 83.4216 12.7639 83.5765 12.9338C84.0463 13.4386 84.456 14.0182 84.621 14.6829C84.8309 15.5274 84.626 16.412 84.4211 17.2615C85.0108 17.9512 85.6504 18.4709 86.44 18.9306C86.5549 18.9956 86.6699 19.0606 86.7848 19.1305C86.7998 19.1405 86.8198 19.1505 86.8348 19.1605C86.8398 19.1605 86.8398 19.1655 86.8448 19.1655C86.8698 19.1805 86.8948 19.2005 86.9197 19.2155C86.9247 19.2205 86.9347 19.2255 86.9397 19.2305C86.9497 19.2405 86.9597 19.2455 86.9747 19.2555C86.9847 19.2605 86.9947 19.2705 87.0047 19.2755C87.0147 19.2805 87.0247 19.2905 87.0347 19.2955C87.0497 19.3104 87.0697 19.3204 87.0847 19.3354C87.0897 19.3404 87.0996 19.3454 87.1046 19.3554C87.1146 19.3654 87.1296 19.3754 87.1396 19.3854C87.1446 19.3904 87.1546 19.4004 87.1596 19.4054C87.1746 19.4204 87.1896 19.4304 87.1996 19.4454C87.2046 19.4504 87.2096 19.4554 87.2096 19.4554C87.2246 19.4704 87.2396 19.4904 87.2546 19.5053C87.2596 19.5103 87.2646 19.5153 87.2696 19.5253C87.2796 19.5403 87.2945 19.5553 87.3045 19.5703C87.3095 19.5753 87.3145 19.5803 87.3145 19.5853C87.3295 19.6053 87.3395 19.6253 87.3545 19.6453C87.3595 19.6503 87.3595 19.6553 87.3645 19.6603C87.3745 19.6753 87.3845 19.6952 87.3895 19.7102C87.3945 19.7152 87.3945 19.7202 87.3995 19.7302C87.4095 19.7502 87.4195 19.7752 87.4295 19.8002C87.4894 19.9601 87.4944 20.13 87.4695 20.2949C87.4695 20.3049 87.4645 20.3149 87.4645 20.3249C87.4595 20.3649 87.4495 20.4049 87.4395 20.4448C87.3745 20.6797 87.2596 20.9146 87.1296 21.1245C87.1046 21.1645 87.0797 21.2044 87.0547 21.2494C87.0397 21.2744 87.0247 21.2994 87.0097 21.3244C86.9997 21.3394 86.9897 21.3544 86.9797 21.3694C86.7498 21.7242 86.49 22.059 86.1801 22.3488C86.1751 22.3538 86.1701 22.3588 86.1601 22.3688C85.9802 22.5337 85.7903 22.6837 85.5805 22.8086C84.471 23.4633 83.0868 23.3683 81.8024 23.2534C81.8074 23.2684 81.8074 23.2833 81.8124 23.2933C81.8374 23.3833 81.8624 23.4732 81.8824 23.5682C81.8874 23.5882 81.8924 23.6082 81.8974 23.6282C81.9074 23.6681 81.9174 23.7131 81.9224 23.7531C81.9424 23.8431 81.9574 23.933 81.9724 24.023C81.9774 24.0429 81.9774 24.0629 81.9824 24.0829C81.9874 24.1229 81.9924 24.1629 81.9973 24.2029C81.9973 24.2179 82.0023 24.2328 82.0023 24.2428C82.0123 24.3178 82.0223 24.3928 82.0273 24.4627C82.0273 24.4877 82.0323 24.5127 82.0323 24.5377C82.0373 24.5727 82.0373 24.6126 82.0423 24.6476C82.0473 24.6826 82.0473 24.7126 82.0473 24.7476C82.0523 24.7976 82.0523 24.8475 82.0573 24.9025C82.0573 24.9375 82.0623 24.9675 82.0623 25.0024C82.0623 25.0324 82.0673 25.0624 82.0673 25.0924C82.0673 25.1424 82.0723 25.1973 82.0723 25.2473C82.0723 25.2723 82.0723 25.3023 82.0773 25.3273C82.0773 25.3722 82.0823 25.4222 82.0823 25.4672C82.0823 25.4922 82.0823 25.5122 82.0823 25.5372C82.0823 25.5971 82.0873 25.6621 82.0873 25.7221C82.0973 26.1019 82.1023 26.4867 82.1223 26.8814C82.2122 28.4106 82.672 29.8899 83.1967 31.3341C83.2417 31.464 83.2917 31.594 83.3416 31.7239C83.3416 31.7239 83.3416 31.7239 83.3416 31.7289C83.4916 32.1287 83.6515 32.5385 83.8164 32.9532C83.8614 33.0732 83.9113 33.1931 83.9563 33.3131C84.0013 33.433 84.0463 33.5529 84.0912 33.6729C84.2711 34.1576 84.4411 34.6473 84.581 35.1421C84.621 35.282 84.6559 35.4169 84.6909 35.5569C84.7159 35.6518 84.7359 35.7468 84.7559 35.8467C84.7609 35.8717 84.7659 35.8967 84.7709 35.9217C84.7909 36.0166 84.8059 36.1066 84.8209 36.2015C84.8558 36.4164 84.8858 36.6263 84.9008 36.8412C84.9208 37.0811 84.9258 37.3209 84.9158 37.5558C84.8708 38.7252 84.6959 39.8846 84.4061 41.019C84.3711 41.1439 84.3411 41.2688 84.3011 41.3938C84.0862 42.1434 83.8214 42.878 83.5016 43.5926C83.4666 43.6776 83.4266 43.7575 83.3866 43.8425C83.3766 43.8675 83.3666 43.8875 83.3516 43.9125C83.3216 43.9724 83.2967 44.0324 83.2667 44.0924C83.2567 44.1173 83.2417 44.1423 83.2317 44.1623C83.2017 44.2273 83.1717 44.2873 83.1367 44.3522C83.1267 44.3672 83.1217 44.3872 83.1118 44.4022C83.0718 44.4822 83.0318 44.5571 82.9968 44.6371C82.577 45.4666 82.1373 46.2862 81.7975 47.1507C81.3377 48.3201 81.0678 49.5495 80.803 50.7738C80.3282 52.9577 79.8535 55.1465 79.3737 57.3304C78.7691 60.1139 78.859 62.7075 79.1688 65.536C79.2538 66.3056 79.3837 67.1102 79.8435 67.7349C80.5331 68.6744 81.8174 69.0242 82.567 69.9187C82.8019 70.2036 82.9818 70.5434 82.9968 70.9132C83.0118 71.283 82.8219 71.6628 82.4871 71.8227C82.2272 71.9476 81.8824 71.8877 81.6825 71.6928C81.6775 71.6878 81.6725 71.6828 81.6675 71.6778C81.6575 71.6678 81.6525 71.6628 81.6475 71.6528C81.6425 71.6428 81.6325 71.6378 81.6275 71.6278C81.6225 71.6228 81.6175 71.6128 81.6125 71.6028C81.6075 71.5928 81.5976 71.5828 81.5926 71.5728C81.5876 71.5678 81.5826 71.5578 81.5826 71.5528C81.5726 71.5329 81.5626 71.5179 81.5576 71.4979C81.5226 71.5279 81.4926 71.5528 81.4576 71.5828C81.4526 71.5878 81.4426 71.5928 81.4376 71.5978C80.8779 72.0176 80.0983 72.0776 79.4537 71.7977C79.4087 71.7777 79.3637 71.7577 79.3238 71.7328C79.2988 71.7427 79.2788 71.7527 79.2538 71.7627H79.2488C79.2238 71.7727 79.2038 71.7777 79.1788 71.7877C78.5442 71.9776 77.8146 71.6578 77.3998 71.1331C76.955 70.5684 76.8101 69.8288 76.7551 69.1141C76.7001 68.3995 76.7201 67.6749 76.5502 66.9803C76.5552 67.1702 76.4053 67.3501 76.2154 67.39C75.8206 66.0557 75.8306 64.6415 75.8706 63.2522C75.9705 59.814 76.2154 56.3759 76.4603 52.9477C76.0555 53.2475 75.6457 53.5474 75.2159 53.7972C75.7107 54.5518 75.8206 55.5513 75.8106 56.4208C75.8006 57.4303 75.6357 58.4498 75.2209 59.3743C74.5813 60.8085 73.4069 61.9079 72.1725 62.9174C72.2975 63.652 72.4774 64.3766 72.7172 65.0813C72.8872 65.1312 73.0371 65.1862 73.117 65.2112C73.5018 65.3161 73.8766 65.4411 74.2364 65.606C74.9711 65.9508 75.6357 66.5055 75.9405 67.2451C76.0655 67.545 76.1254 67.9048 75.9655 68.1896C75.8506 68.3895 75.5957 68.5095 75.3758 68.4845C75.3659 68.4845 75.3609 68.4845 75.3509 68.4795C75.3409 68.4795 75.3359 68.4745 75.3259 68.4745C75.3109 68.4695 75.2959 68.4645 75.2859 68.4645C75.2809 68.4645 75.2759 68.4595 75.2659 68.4595C75.2559 68.4545 75.2409 68.4495 75.2309 68.4445C75.2259 68.4445 75.2259 68.4395 75.2209 68.4395C75.2059 68.4295 75.1909 68.4245 75.1809 68.4145C75.1759 68.4095 75.176 68.4095 75.171 68.4045C75.156 68.3945 75.146 68.3795 75.131 68.3695C75.131 68.3845 75.136 68.3995 75.136 68.4145C75.141 68.5844 75.021 68.7443 74.8711 68.8243C74.9761 68.9442 75.081 69.0592 75.1909 69.1741C75.4558 69.449 75.7357 69.7188 75.9056 70.0586C76.0705 70.3985 76.0955 70.8382 75.8556 71.1331C75.6307 71.4079 75.136 71.4529 74.9161 71.183C74.9011 71.168 74.8911 71.1481 74.8761 71.1281C74.8661 71.1481 74.8511 71.168 74.8411 71.188C74.8411 71.193 74.8361 71.193 74.8361 71.198C74.8261 71.213 74.8161 71.228 74.8011 71.243L74.7962 71.248C74.7862 71.263 74.7712 71.278 74.7562 71.293C74.5913 71.4779 74.3664 71.5628 74.0815 71.5778C73.8217 71.5928 73.5618 71.5029 73.3619 71.343C73.3419 71.328 73.3269 71.313 73.3069 71.298C73.2919 71.283 73.277 71.268 73.257 71.253C73.257 71.253 73.257 71.253 73.252 71.248C73.237 71.233 73.227 71.218 73.212 71.203C73.212 71.198 73.207 71.198 73.207 71.193C73.192 71.1731 73.177 71.1581 73.167 71.1381C73.162 71.1631 73.152 71.188 73.142 71.213C72.9921 71.5928 72.4574 71.7477 72.0576 71.6078C71.6278 71.4579 71.328 71.0881 71.0631 70.7233C70.0736 69.369 69.2691 67.8848 68.6044 66.3506C67.8748 67.3651 66.6355 68.0047 65.3761 68.0297C65.4811 68.1247 65.3911 68.0897 65.4461 68.1546C66.1457 68.6394 66.7154 69.304 67.0802 70.0636C67.2152 70.3435 67.3201 70.6883 67.1602 70.9582C67.0253 71.183 66.7254 71.283 66.4606 71.238C66.3606 71.223 66.2657 71.188 66.1757 71.1481C66.1507 71.1331 66.1207 71.1231 66.0957 71.1081C66.0758 71.0981 66.0608 71.0831 66.0408 71.0731C66.0358 71.0681 66.0258 71.0631 66.0208 71.0581C66.0008 71.0431 65.9758 71.0281 65.9558 71.0131L65.9508 71.0081C65.9258 70.9881 65.9058 70.9732 65.8809 70.9532C65.8809 70.9582 65.8859 70.9632 65.8859 70.9682C65.8859 70.9732 65.8859 70.9781 65.8859 70.9831C65.8859 70.9881 65.8859 70.9931 65.8859 70.9981C65.8859 71.0031 65.8859 71.0081 65.8859 71.0131C65.8859 71.0181 65.8859 71.0181 65.8859 71.0231C65.8859 71.0331 65.8809 71.0431 65.8809 71.0481C65.8809 71.0531 65.8759 71.0531 65.8759 71.0581C65.8759 71.0631 65.8709 71.0681 65.8709 71.0731C65.8359 71.1381 65.7709 71.183 65.706 71.218C65.1862 71.5079 64.4966 71.4629 64.0069 71.1281C63.9919 71.1181 63.9769 71.1081 63.9619 71.0931C63.9519 71.0831 63.9419 71.0781 63.9319 71.0681C63.9069 71.0481 63.8769 71.0281 63.8519 71.0031C63.8469 71.0181 63.8419 71.0331 63.8319 71.0481C63.8319 71.0531 63.8269 71.0581 63.8269 71.0631C63.8219 71.0731 63.8169 71.0831 63.812 71.0931C63.807 71.0981 63.807 71.1031 63.802 71.1081C63.797 71.1181 63.787 71.1331 63.777 71.1431C63.777 71.1431 63.777 71.1481 63.772 71.1481C63.637 71.318 63.3822 71.3979 63.1523 71.3779C62.8725 71.348 62.6176 71.203 62.3677 71.0681C60.7786 70.2036 59.0145 69.6539 57.2104 69.454C56.7657 69.404 56.3109 69.374 55.8861 69.2391C55.4614 69.1041 55.0516 68.8443 54.8517 68.4495C54.6518 68.0397 54.7118 67.5 55.0716 67.2351Z" fill="#EE8426"/>
<path d="M145.269 49.0746C144.634 50.6088 144.214 52.258 144.279 53.9171C144.289 54.132 144.324 54.3868 144.509 54.4968C144.734 54.6317 145.014 54.4768 145.229 54.3219C146.643 53.3024 148.017 52.123 148.782 50.5539C148.957 50.1991 149.092 49.8293 149.212 49.4544C149.247 50.1941 149.302 50.9287 149.357 51.6683C149.362 51.6633 149.362 51.6583 149.367 51.6533C149.367 51.6533 149.367 51.6583 149.362 51.6583C149.247 52.5028 149.162 53.3474 149.112 54.1919C148.657 54.8516 148.492 55.6612 148.337 56.4508C148.042 57.955 148.197 59.6641 147.478 61.0133C147.003 61.9029 147.068 62.9973 146.633 63.9068C146.348 64.4915 146.069 65.0812 145.784 65.6659C145.729 65.7808 145.674 65.9158 145.664 66.0457C145.439 66.3205 145.224 66.6004 145.029 66.8952C144.804 67.2301 144.584 67.6099 144.639 68.0096C144.669 68.2245 144.794 68.4394 144.994 68.5194C145.194 68.5993 145.439 68.5194 145.499 68.3095C145.619 68.5694 145.879 68.7543 146.163 68.7842C146.448 68.8142 146.768 68.6893 146.938 68.4594C147.108 68.6893 147.393 68.8292 147.683 68.8142C147.967 68.7992 148.247 68.6693 148.387 68.4194C148.632 68.5794 148.947 68.6593 149.212 68.5394C149.432 68.4394 149.577 68.2195 149.642 67.9847C149.707 67.7498 149.697 67.5049 149.682 67.265C149.637 66.5104 149.537 65.7558 149.387 65.0112C149.437 64.8913 149.467 64.7614 149.497 64.6364C149.737 63.557 149.976 62.4726 150.221 61.3931C150.696 59.2593 151.176 57.2303 151.431 55.0615C153.355 52.8327 154.179 49.8942 155.204 47.1307C155.688 45.8264 156.233 44.542 156.833 43.2827C159.282 44.0223 161.635 45.2017 163.349 47.0807C165.228 49.1396 166.218 52.153 165.373 54.8116C165.113 55.6312 164.689 56.4008 164.529 57.2453C164.314 58.3797 164.594 59.5591 165.098 60.5936C165.603 61.628 166.323 62.5425 167.037 63.4471C167.877 64.5165 168.821 65.421 169.761 66.3855C169.716 66.5654 169.651 66.7403 169.601 66.9152C169.506 67.2401 169.466 67.6249 169.631 67.9047C169.586 68.0146 169.546 68.1296 169.501 68.2445C169.211 69.0541 168.921 69.8637 168.627 70.6732C168.512 70.9881 168.412 71.3829 168.647 71.6277C168.791 71.7777 169.031 71.8126 169.236 71.7627C169.441 71.7127 169.636 71.6527 169.811 71.5378C170.171 71.9126 170.755 72.0575 171.255 71.8926C171.46 71.8226 171.56 71.7027 171.71 71.5528C171.92 71.7727 172.22 71.8976 172.525 71.8826C172.824 71.8726 173.134 71.7127 173.324 71.4778C173.764 71.6827 174.344 71.7427 174.688 71.4029C174.968 71.128 174.993 70.6882 174.973 70.2934C174.938 69.7387 174.833 69.184 174.663 68.6493C174.873 68.6543 175.083 68.6143 175.233 68.4694C175.413 68.2945 175.453 67.9847 175.223 67.8797C175.503 67.8098 175.618 67.4499 175.528 67.1751C175.438 66.9052 175.208 66.7053 174.983 66.5254C174.618 66.2356 174.244 65.9607 173.854 65.7059C173.709 64.9663 173.569 64.2366 173.414 63.4621C173.739 62.5475 173.689 61.5431 173.529 60.5836C173.369 59.6291 173.099 58.6896 172.994 57.7251C172.864 56.5557 172.974 55.3713 173.079 54.2019C173.244 52.4179 173.409 50.6288 173.574 48.8448C174.463 48.8698 175.368 48.6199 176.098 48.1052C176.812 47.6054 177.337 46.9308 177.607 46.1462C177.712 46.0862 177.817 46.0263 177.922 45.9663C177.982 46.3561 178.062 46.7409 178.167 47.1157C178.022 48.505 178.736 49.9292 178.491 51.3285C177.952 54.3818 179.971 57.4702 179.386 60.5136C179.151 61.733 179.266 62.9873 179.686 64.1567C179.476 64.6964 179.481 65.3111 179.681 65.8558C179.636 65.9857 179.616 66.1256 179.611 66.2606C179.546 67.7898 180.195 69.3639 181.385 70.3284C181.315 70.7432 181.55 71.193 181.935 71.3679C182.159 71.4728 182.414 71.4828 182.659 71.4628C183.164 71.4178 183.544 71.2379 183.948 70.9281C184.268 71.2679 184.713 71.4878 185.178 71.5278C185.643 71.5678 186.067 71.4178 186.447 71.138C186.562 71.3279 186.857 71.3429 187.037 71.213C187.217 71.083 187.302 70.8581 187.337 70.6383C187.427 70.0586 187.202 69.4639 186.852 68.9941C186.497 68.5244 186.022 68.1646 185.543 67.8247C185.188 67.5749 184.828 67.34 184.493 67.0651C184.398 66.8752 184.253 66.6953 184.143 66.5454C183.614 65.8208 183.484 64.8863 183.369 63.9968C183.209 62.7524 183.049 61.5081 182.889 60.2637C183.004 59.9439 183.039 59.5791 183.059 59.2343C183.194 56.9405 182.999 54.6667 183.544 52.4329C184.048 50.364 184.123 48.2151 184.328 46.0962C184.533 43.9773 184.748 41.8385 185.808 39.9894C186.472 38.8201 186.567 37.4108 186.477 36.0665C186.387 34.7222 186.127 33.3879 186.147 32.0436C186.172 30.6094 186.517 29.2001 186.692 27.7709C186.872 26.3467 186.867 24.8375 186.247 23.5481C185.912 22.8485 185.408 22.2438 185.063 21.5492C185.023 21.4642 184.983 21.3793 184.948 21.2943C185.193 20.8895 185.343 20.4248 185.418 19.955C185.528 19.3104 185.508 18.6507 185.493 17.9961C185.468 16.9416 185.438 15.8872 185.413 14.8327C185.598 15.3025 185.877 15.7273 186.272 16.0421C186.397 16.142 186.597 16.227 186.702 16.1071C186.757 16.0421 186.757 15.9471 186.757 15.8622C186.747 15.5524 186.812 15.1626 186.802 14.8527C187.856 13.9332 188.626 12.6989 188.986 11.3496C189.091 10.9598 189.161 10.54 189.026 10.1602C188.816 9.56052 188.186 9.23569 187.627 8.93585C186.392 8.2812 185.243 7.47662 184.203 6.54711C183.899 6.27226 183.594 5.98241 183.214 5.82749C182.944 5.71755 182.629 5.68757 182.359 5.78252C181.755 5.36774 181.065 5.06789 180.34 4.98794C179.521 4.89798 178.566 5.0629 177.957 5.6226C176.762 5.28278 175.458 5.34275 174.299 5.78751C174.149 5.84748 173.999 5.90745 173.854 5.98241C173.499 5.83749 173.069 5.87247 172.714 6.03738C172.265 6.24227 171.91 6.61208 171.59 6.99188C171.275 7.37168 170.975 7.77646 170.591 8.0913C169.971 8.59103 169.181 8.81092 168.462 9.14074C167.737 9.47057 167.017 10.0003 166.848 10.7749C166.728 11.2996 166.887 11.8493 167.092 12.349C167.577 13.5184 168.836 14.268 169.371 15.4174C169.596 15.8972 169.816 16.3719 170.041 16.8517C170.206 16.5868 170.376 16.3219 170.531 16.0471C170.536 16.1171 170.541 16.187 170.546 16.252C170.296 16.8067 170.216 17.4414 170.156 18.056C170.076 18.8556 170.036 19.6652 169.996 20.4648C169.316 20.9545 168.906 21.6441 168.567 22.3937C167.597 22.9984 166.408 23.2983 165.253 23.4232C163.574 23.6031 161.87 23.4832 160.211 23.798C156.528 24.4926 153.475 27.3261 151.905 30.7243C150.581 33.5928 150.211 36.8111 150.416 39.9745C149.822 40.9439 149.257 41.9284 148.672 42.9029C148.322 43.4876 147.972 44.0723 147.628 44.657C146.758 46.1112 145.904 47.5405 145.269 49.0746ZM150.436 40.5242C150.431 40.4892 150.431 40.4492 150.426 40.4142C150.431 40.4492 150.436 40.4842 150.436 40.5242ZM182.569 60.7935C182.544 60.8184 182.524 60.8384 182.494 60.8584C182.259 59.8939 182.149 58.9095 182.094 57.92C182.149 58.9095 182.259 59.8889 182.494 60.8584C182.524 60.8384 182.549 60.8134 182.569 60.7935ZM181.78 50.0941C181.74 49.8892 181.69 49.6843 181.605 49.4894C181.69 49.6793 181.74 49.8842 181.78 50.0941ZM165.143 33.9227C165.178 35.5268 165.778 37.041 166.328 38.5552C165.778 37.041 165.183 35.5268 165.143 33.9227ZM167.202 43.7625C167.202 43.6475 167.207 43.5326 167.212 43.4126C167.207 43.5326 167.207 43.6475 167.202 43.7625ZM166.433 38.8401C166.408 38.7651 166.378 38.6951 166.353 38.6202C166.378 38.6951 166.403 38.7651 166.433 38.8401ZM172.669 51.9032C172.854 55.0815 172.535 58.2698 171.875 61.4131C172.535 58.2698 172.859 55.0815 172.669 51.9032ZM172.614 51.1436C172.629 51.3285 172.644 51.5184 172.654 51.7033C172.644 51.5184 172.629 51.3335 172.614 51.1436ZM172.505 50.0641C172.52 50.1791 172.535 50.299 172.545 50.4139C172.53 50.299 172.52 50.1791 172.505 50.0641ZM170.546 57.7751C170.581 57.875 170.621 57.9799 170.656 58.0799C170.616 57.9799 170.581 57.875 170.546 57.7751ZM167.492 24.7775C167.462 24.8275 167.437 24.8724 167.407 24.9224C167.437 24.8724 167.467 24.8225 167.492 24.7775ZM167.577 24.6276C167.562 24.6575 167.542 24.6925 167.522 24.7225C167.542 24.6925 167.557 24.6625 167.577 24.6276ZM167.657 24.4826C167.642 24.5126 167.627 24.5376 167.612 24.5676C167.627 24.5376 167.642 24.5076 167.657 24.4826ZM167.732 24.3327C167.722 24.3577 167.707 24.3827 167.692 24.4077C167.707 24.3827 167.717 24.3577 167.732 24.3327ZM167.802 24.1778C167.792 24.2028 167.782 24.2228 167.767 24.2478C167.782 24.2278 167.792 24.2028 167.802 24.1778ZM167.937 23.878C167.927 23.8979 167.922 23.9129 167.912 23.9329C167.922 23.9129 167.932 23.893 167.937 23.878ZM168.002 23.728C167.997 23.738 167.992 23.753 167.987 23.763C167.992 23.753 167.997 23.743 168.002 23.728ZM182.744 60.5786C182.739 60.5886 182.734 60.5986 182.724 60.6086C182.729 60.5986 182.734 60.5886 182.744 60.5786ZM182.634 60.7185C182.619 60.7335 182.609 60.7485 182.594 60.7635C182.609 60.7535 182.624 60.7385 182.634 60.7185ZM182.694 60.6485C182.684 60.6635 182.674 60.6735 182.664 60.6885C182.674 60.6735 182.684 60.6585 182.694 60.6485ZM184.548 67.2401C184.548 67.2351 184.543 67.2301 184.543 67.2251C184.543 67.2301 184.543 67.2351 184.548 67.2401ZM184.558 67.285C184.558 67.28 184.553 67.275 184.553 67.27C184.558 67.275 184.558 67.28 184.558 67.285ZM184.573 67.33C184.573 67.325 184.573 67.32 184.568 67.315C184.568 67.32 184.568 67.325 184.573 67.33ZM184.498 67.7248C184.493 67.7298 184.493 67.7348 184.488 67.7398C184.493 67.7348 184.498 67.7298 184.498 67.7248ZM184.523 67.6798C184.518 67.6848 184.518 67.6898 184.513 67.6948C184.518 67.6948 184.523 67.6848 184.523 67.6798ZM184.548 67.6398C184.548 67.6448 184.543 67.6498 184.538 67.6548C184.543 67.6498 184.543 67.6448 184.548 67.6398ZM184.563 67.5949C184.563 67.5999 184.558 67.6049 184.558 67.6099C184.558 67.6049 184.558 67.5999 184.563 67.5949ZM184.583 67.5099C184.583 67.5149 184.583 67.5149 184.583 67.5199C184.578 67.5149 184.578 67.5099 184.583 67.5099ZM184.458 67.7798C184.463 67.7748 184.463 67.7698 184.468 67.7648C184.463 67.7748 184.458 67.7798 184.458 67.7798ZM179.731 66.0057C179.736 66.0207 179.746 66.0357 179.751 66.0507C179.741 66.0357 179.736 66.0207 179.731 66.0057ZM179.771 66.0907C179.786 66.1206 179.801 66.1556 179.821 66.1856C179.801 66.1556 179.786 66.1256 179.771 66.0907ZM178.386 47.8353C178.551 48.2801 178.796 48.7548 179.251 48.8848C179.766 49.0297 180.315 48.6599 180.835 48.7798C180.97 48.8098 181.095 48.8748 181.205 48.9647C181.235 48.9897 181.265 49.0147 181.295 49.0447C181.325 49.0746 181.35 49.1046 181.38 49.1346C181.355 49.1046 181.325 49.0746 181.295 49.0447C181.265 49.0147 181.235 48.9897 181.205 48.9647C181.095 48.8798 180.97 48.8148 180.835 48.7798C180.315 48.6599 179.766 49.0297 179.251 48.8848C178.801 48.7548 178.551 48.2801 178.386 47.8353ZM172.609 48.7198C172.599 48.7198 172.594 48.7148 172.584 48.7148C172.589 48.7148 172.599 48.7148 172.609 48.7198ZM172.465 48.6749C172.455 48.6699 172.44 48.6649 172.43 48.6649C172.44 48.6699 172.455 48.6749 172.465 48.6749ZM158.432 40.1943C158.477 40.1144 158.522 40.0344 158.567 39.9545C158.612 40.0144 158.657 40.0794 158.702 40.1394C158.612 40.1544 158.522 40.1744 158.432 40.1943ZM152.41 44.7469C152.365 44.9019 152.32 45.0518 152.275 45.2017C152.32 45.0518 152.365 44.8969 152.41 44.7469ZM152.23 45.3466C152.2 45.4516 152.165 45.5515 152.135 45.6565C152.165 45.5565 152.195 45.4516 152.23 45.3466ZM151.83 46.556C151.845 46.506 151.865 46.461 151.88 46.4111C151.865 46.461 151.85 46.511 151.83 46.556ZM151.671 47.0057C151.681 46.9808 151.691 46.9508 151.701 46.9258C151.691 46.9508 151.681 46.9758 151.671 47.0057ZM151.501 47.4455C151.506 47.4355 151.506 47.4305 151.511 47.4205C151.511 47.4305 151.506 47.4405 151.501 47.4455ZM149.227 65.2711L149.232 65.2661C149.232 65.2661 149.232 65.2661 149.227 65.2711ZM145.709 66.2956C145.709 66.2906 145.704 66.2856 145.704 66.2856C145.704 66.2906 145.709 66.2956 145.709 66.2956ZM149.197 46.9708C149.197 46.9408 149.197 46.9108 149.202 46.8858C149.197 46.9158 149.197 46.9408 149.197 46.9708ZM149.177 47.6504C149.177 47.6354 149.177 47.6254 149.177 47.6104C149.177 47.6254 149.177 47.6404 149.177 47.6504Z" fill="#EE8426"/>
<path d="M283.741 4.68325C283.591 3.91865 283.706 3.05411 284.221 2.48941C284.675 1.98967 285.35 1.80477 285.97 1.56489C286.594 1.32502 287.189 1.00519 287.749 0.625391C288.069 0.405507 288.468 0.105666 288.878 0.205613C289.193 0.285571 289.583 0.550431 289.683 0.885254C290.572 0.620394 291.472 0.365529 292.391 0.335544C293.256 0.30556 294.16 0.480468 294.885 0.965212C294.705 0.815291 294.555 0.715344 294.74 0.450484C294.9 0.220605 295.155 0.0706843 295.42 0.0207107C295.799 -0.0492523 296.199 0.065687 296.539 0.250589C296.879 0.435492 297.189 0.690357 297.509 0.920236C298.153 1.38999 298.858 1.76479 299.602 2.03465C299.957 2.16458 300.337 2.28451 300.587 2.57436C300.917 2.95416 300.927 3.53885 300.787 4.02859C300.647 4.51833 300.382 4.9631 300.202 5.43785C299.997 5.97257 299.907 6.54227 299.752 7.09198C299.597 7.64169 299.368 8.19139 298.953 8.57119C298.538 8.95099 297.908 9.11091 297.424 8.83605C297.289 8.7561 297.169 8.65115 297.074 8.52122C296.924 9.94047 296.534 11.3197 296.249 12.714C295.954 14.1532 295.759 15.6475 296.049 17.0917C296.544 19.5754 298.908 21.2145 301.187 22.099C302.536 22.6188 304.015 22.6088 305.449 22.5238C308.253 22.3589 311.036 21.9441 313.82 21.5493C315.959 21.2495 318.168 20.9696 320.247 21.5843C323.43 22.5238 325.724 25.3873 327.478 28.3258C327.833 28.8205 328.102 29.3752 328.267 29.8999C328.627 31.0443 328.592 32.2737 328.527 33.473C328.462 34.6724 328.362 35.8918 328.592 37.0661C328.822 38.2455 329.442 39.3999 330.471 39.9496C331.391 40.4394 332.565 40.3494 333.405 39.7297C334.249 39.1101 334.719 37.9857 334.589 36.9162C334.454 35.8468 333.724 34.8873 332.755 34.5125C332.12 34.2676 331.346 34.2876 330.826 34.7424C330.266 35.2321 330.141 36.1616 330.491 36.8313C330.841 37.5009 331.591 37.8957 332.325 37.8707C331.446 38.1006 330.441 37.7108 329.926 36.9262C329.412 36.1466 329.412 35.0272 329.931 34.2526C330.466 33.453 331.461 33.0683 332.39 33.1682C333.32 33.2681 334.169 33.7979 334.809 34.5075C335.713 35.502 336.243 36.8662 336.193 38.2355C336.143 39.6048 335.498 40.9491 334.439 41.7587C333.38 42.5682 331.925 42.8031 330.706 42.3084C329.597 41.8586 328.212 40.2994 327.548 39.0201C327.403 39.7597 327.258 40.5043 327.138 41.2539C326.813 43.2529 326.833 45.2018 326.898 47.2158C326.963 49.2747 327.323 51.3186 327.952 53.2726C327.972 53.3325 327.992 53.3875 328.012 53.4475C328.672 55.4264 329.627 57.3354 329.831 59.4243C330.051 61.6781 329.382 63.912 328.722 66.0658C328.242 67.63 329.037 69.1792 329.107 70.8233C329.132 71.403 329.117 72.0577 328.712 72.4524C328.472 72.6873 328.117 72.7823 327.793 72.7323C327.468 72.6823 327.163 72.5024 326.928 72.2625C326.718 72.5324 326.388 72.6973 326.058 72.7023C325.724 72.7073 325.394 72.5474 325.179 72.2875C325.079 72.5224 324.779 72.6174 324.544 72.5374C324.309 72.4574 324.139 72.2376 324.04 72.0027C323.81 71.433 323.965 70.7384 324.364 70.2786C324.759 69.8188 325.364 69.584 325.959 69.579C326.548 66.2457 327.198 62.6676 326.413 59.3744C326.178 58.3949 325.834 57.4454 325.474 56.5059C325.124 55.5914 324.844 54.6119 324.454 53.7173C324.119 52.9428 323.605 52.2481 323.275 51.4535C322.94 50.654 322.67 49.8244 322.435 48.9848C322.056 47.6256 321.771 46.2363 321.461 44.852C321.156 46.0414 320.841 47.2258 320.786 48.4501C320.681 50.7989 321.606 52.9128 322.615 55.0117C323.415 56.6758 324.234 58.4349 324.169 60.2989C324.119 61.7231 323.555 63.0674 323.11 64.4167C322.68 65.721 322.365 67.0653 322.161 68.4296C322.046 69.2092 321.961 70.0037 321.726 70.7533C321.486 71.5029 321.071 72.2226 320.426 72.6373C319.782 73.0521 318.887 73.0971 318.298 72.6074C317.848 73.0321 317.118 72.9222 316.728 72.4375C316.404 72.7023 315.874 72.3775 315.814 71.9527C315.754 71.5279 316.039 71.1182 316.384 70.8833C317.038 70.4335 317.913 70.4335 318.552 69.9588C318.907 69.6939 319.157 69.3041 319.372 68.9093C320.661 66.5056 320.841 63.5821 320.316 60.8836C319.792 58.185 318.792 55.7563 317.358 53.4425C315.729 50.8189 314.055 48.0653 313.755 44.952C313.615 43.5027 313.78 42.0435 313.755 40.5893C313.72 38.7053 313.36 36.8313 312.696 35.0822C312.071 35.2971 311.476 35.6219 310.926 36.0017C309.932 36.6763 309.057 37.5209 308.113 38.2705C305.639 40.2495 302.721 41.6187 299.657 42.2334C299.423 46.6711 299.512 51.0687 299.612 55.5164C299.662 57.6403 299.732 59.8441 298.913 61.7881C297.798 64.4317 298.638 67.4901 298.733 70.3785C298.753 70.9283 298.773 71.5079 298.538 72.0027C298.323 72.4574 297.888 72.7923 297.404 72.8722C296.919 72.9522 296.409 72.7823 296.064 72.4225C295.505 73.0771 294.44 73.1671 293.791 72.6124C293.466 72.8872 292.931 72.7223 292.691 72.3625C292.456 71.9977 292.456 71.5179 292.556 71.0932C292.836 69.8938 293.766 68.9993 294.4 67.9548C295.685 65.8459 295.729 63.1873 295.555 60.6937C295.38 58.2 295.04 55.6513 295.675 53.2426C296.474 50.2142 295.979 46.9359 295.57 43.8226C295.46 42.988 295.31 42.1335 294.875 41.4238C294.745 41.2139 294.59 41.0191 294.415 40.8441C294.395 40.8242 294.38 40.8092 294.36 40.7942C294.345 40.7792 294.33 40.7692 294.32 40.7542C294.3 40.7392 294.285 40.7192 294.265 40.7042C294.25 40.6892 294.235 40.6792 294.22 40.6642C294.2 40.6443 294.175 40.6293 294.155 40.6093C294.13 40.5893 294.1 40.5693 294.075 40.5493C294.06 40.5343 294.04 40.5243 294.025 40.5143C294.005 40.4993 293.985 40.4893 293.965 40.4743C293.95 40.4643 293.93 40.4494 293.91 40.4394C293.885 40.4244 293.865 40.4094 293.84 40.3944C293.825 40.3844 293.81 40.3744 293.796 40.3694C293.761 40.3494 293.726 40.3294 293.686 40.3094C293.671 40.2994 293.656 40.2944 293.641 40.2844C293.616 40.2694 293.591 40.2595 293.561 40.2445C293.546 40.2395 293.531 40.2295 293.516 40.2245C293.481 40.2095 293.451 40.1945 293.416 40.1795C293.411 40.1745 293.401 40.1745 293.396 40.1695C293.356 40.1545 293.316 40.1395 293.271 40.1245C293.256 40.1195 293.246 40.1145 293.231 40.1095C293.201 40.0995 293.166 40.0895 293.136 40.0795C293.121 40.0746 293.111 40.0696 293.096 40.0696C293.051 40.0596 293.011 40.0446 292.966 40.0346C293.581 43.5177 293.855 47.0709 293.78 50.609C293.746 52.433 293.601 54.0422 293.701 55.8612C293.781 57.2405 293.91 58.5848 293.801 59.969C293.661 60.9235 293.646 61.923 293.571 62.8825C293.536 63.3423 293.576 63.907 293.451 64.3517C293.341 64.7565 293.096 65.1613 292.951 65.5611C292.511 66.7754 292.211 68.0448 292.061 69.3341C291.991 69.9138 292.056 70.5435 291.976 71.1132C291.907 71.5829 291.462 72.1076 291.077 72.3325C290.642 72.5824 290.003 72.5374 289.753 72.0876C289.408 72.3325 289.048 72.5874 288.633 72.6523C288.218 72.7173 287.739 72.5274 287.594 72.1176C287.304 72.3575 286.859 72.3275 286.564 72.0926C286.269 71.8578 286.125 71.453 286.14 71.0682C286.15 70.6834 286.299 70.3086 286.499 69.9887C286.824 69.474 287.299 69.0692 287.839 68.8194C288.368 68.5745 288.988 68.7144 289.353 68.2097C289.603 67.8649 289.858 67.4351 289.958 67.0103C290.037 66.6555 289.988 66.2757 290.057 65.9109C290.252 64.8665 290.402 63.817 290.512 62.7576C290.727 60.6437 290.777 58.5098 290.662 56.3859C290.657 56.301 290.652 56.216 290.647 56.1311C290.357 51.2586 289.038 46.5861 288.833 41.7087C288.768 40.1345 287.889 38.6703 287.384 37.1861C286.339 34.1277 286.534 30.7595 287.029 27.5562C287.524 24.3479 288.288 21.2445 288.363 17.9962C288.413 15.9723 288.458 13.9534 288.508 11.9294C288.528 11.0649 288.548 10.1953 288.408 9.34578C288.248 8.38129 287.884 7.46678 287.659 6.52228C287.644 7.037 287.624 7.55173 287.554 8.05647C287.514 8.32133 287.464 8.58619 287.334 8.82106C287.209 9.05594 286.999 9.25083 286.749 9.30081C286.469 9.35578 286.18 9.22585 285.97 9.02595C285.76 8.82606 285.615 8.5662 285.47 8.31133C285.19 7.8066 284.915 7.30686 284.635 6.80213C284.271 6.13748 283.891 5.44784 283.741 4.68325Z" fill="#EE8426"/>
<path d="M0.220534 69.024C0.295494 69.4338 0.375452 69.8585 0.605331 70.2034C0.840206 70.5482 1.26998 70.793 1.66477 70.6781C1.76472 70.6481 1.86966 70.5732 1.85467 70.4682C2.01459 70.6581 2.34941 70.7381 2.57929 70.6581C2.80917 70.5782 2.98907 70.3633 3.05903 70.1284C3.13399 69.8885 3.10901 69.6287 3.01906 69.3988C2.86414 68.989 2.50932 68.6592 2.08955 68.5442C2.08455 68.5942 2.08455 68.6492 2.07955 68.6992C1.74973 67.6097 2.35441 66.2405 3.14399 65.4209C3.93357 64.6063 5.023 64.1516 6.12741 63.9217C7.23183 63.6918 8.36623 63.6618 9.49064 63.5619C11.9993 63.342 14.493 62.7823 16.8018 61.7578C17.3165 61.5279 17.8412 61.2531 18.221 60.8533C18.1461 61.6829 17.9012 62.4824 17.5214 63.232C17.0267 64.2015 16.452 65.146 16.1471 66.1955C16.0822 66.4204 16.0272 66.6602 16.0772 66.8901C16.1621 67.2749 16.5019 67.5348 16.8168 67.7646C18.256 68.7991 19.7152 69.8386 21.3444 70.5282C22.9735 71.2178 24.8175 71.5327 26.5216 71.0579C26.6566 71.2128 26.8415 71.1878 27.0414 71.2178C27.2413 71.2478 27.4611 71.1778 27.5811 71.0129C27.701 70.853 27.706 70.5982 27.5611 70.4532C27.691 70.4982 27.9759 70.3983 27.9809 70.2633C27.9859 70.1284 27.9059 70.0035 27.816 69.8985C27.5261 69.5587 27.1213 69.3188 26.6816 69.2289C26.2468 69.1389 25.777 69.2039 25.3822 69.4088C24.1379 68.914 22.9485 68.4343 21.7642 67.8046C21.5643 67.6997 21.3494 67.5698 21.2794 67.3499C21.1845 67.055 21.4043 66.7602 21.6142 66.5353C22.6937 65.3759 23.963 64.4064 25.1474 63.357C26.3317 62.3075 27.4661 61.1431 28.1708 59.7139C28.1608 59.7539 28.1508 59.7989 28.1408 59.8388C31.2192 60.0037 34.3025 60.0837 37.3859 60.1936C38.3304 60.2286 39.2799 60.2586 40.2094 60.0787C40.5792 60.0037 40.944 59.8988 41.2988 59.7589C41.5587 60.4585 41.9735 61.0532 42.4732 61.5829C42.4832 61.6379 42.4982 61.6979 42.5082 61.7528C42.928 63.4269 43.6226 65.0161 44.3122 66.5953C44.5721 67.195 44.837 67.7946 45.1918 68.3393C46.2512 69.9735 48.1352 71.0229 50.0492 70.7731C50.1941 70.958 50.429 71.0729 50.6639 71.0729C50.8988 71.0729 51.1486 70.963 51.2886 70.7731C51.4585 71.0129 51.8483 71.0229 52.0681 70.823C52.1431 70.7581 52.1931 70.6731 52.2331 70.5832C52.258 70.7131 52.333 70.833 52.433 70.918C52.5629 71.0379 52.7328 71.1079 52.9077 71.1479C53.1226 71.1978 53.3675 71.2078 53.5574 71.0879C53.7523 71.2428 54.1321 71.1079 54.267 70.903C54.4019 70.6981 54.4119 70.4332 54.4069 70.1834C54.3319 67.8796 53.1426 65.7507 51.7133 63.9517C50.2791 62.1526 48.58 60.5834 47.2107 58.7444C48.7249 57.2702 50.2791 55.681 51.1386 53.7421C52.413 50.8736 52.0232 47.4304 53.4724 44.6469C53.5024 44.5869 53.5374 44.5219 53.5673 44.457C53.5823 44.437 53.6023 44.422 53.6173 44.402C54.0221 43.9422 54.267 43.3675 54.4819 42.7928C54.6768 42.2631 54.8567 41.7034 54.8167 41.1387C54.8117 41.0288 54.7917 40.9188 54.7717 40.8139C54.7817 40.4641 54.8767 40.1542 55.0566 39.8344C55.1615 39.6495 55.2914 39.4796 55.3364 39.2747C55.3914 39.0448 55.2814 38.8199 55.1265 38.645C55.1115 38.1703 55.2315 37.7055 55.3314 37.2408C55.4314 36.776 55.5063 36.2963 55.4064 35.8315C55.3064 35.3668 54.9866 34.927 54.5368 34.8071C54.277 34.7421 53.9971 34.7871 53.7522 34.897C53.5074 35.007 53.2925 35.1769 53.0976 35.3668C52.7378 35.7166 52.4379 36.1314 52.2181 36.5861C51.9982 37.0409 51.8632 37.5256 51.6034 37.9554C50.9487 37.8504 50.2841 37.8155 49.6244 37.8604C49.6194 37.8504 49.6144 37.8405 49.6094 37.8355C49.5745 37.8155 49.5545 37.8305 49.5345 37.8654C49.3696 37.8804 49.2047 37.8954 49.0397 37.9154C48.9598 37.9254 48.8798 37.9404 48.7999 37.9504C48.475 36.716 47.8154 35.5567 46.9958 34.5822C46.8909 34.4622 46.7859 34.3373 46.651 34.2523C46.5161 34.1674 46.3512 34.1224 46.1962 34.1574C46.0213 34.2024 45.8864 34.3473 45.7915 34.4972C45.6216 34.7721 45.5316 35.0869 45.4666 35.4017C45.2967 36.2263 45.2967 37.1058 45.4317 37.9354C45.3067 38.0553 45.2318 38.2253 45.1968 38.3952C45.1668 38.5651 45.1718 38.745 45.1868 38.9199C45.2218 39.3097 45.2917 39.6945 45.3617 40.0793C45.4017 40.3092 45.4466 40.539 45.4866 40.7689C45.4866 40.7739 45.4866 40.7789 45.4866 40.7839C45.4816 40.7989 45.4766 40.8139 45.4766 40.8289C45.3067 41.5635 45.4317 42.3431 45.6915 43.0477C45.7765 43.2776 45.8764 43.5025 46.0013 43.7074C45.9614 43.8223 45.9314 43.9422 45.8914 44.0572C45.8065 44.332 45.6715 44.6119 45.4217 44.7468C45.3317 44.7618 45.2368 44.7818 45.1568 44.8268C45.0269 44.8468 44.8919 44.8468 44.757 44.8518C43.8275 44.8917 42.918 45.3115 42.2733 45.9911C42.2683 45.9911 42.2633 45.9911 42.2583 45.9961C42.2183 46.0111 42.1934 46.0361 42.1784 46.0711C41.3838 46.0861 40.5892 46.1161 39.7946 46.1511C39.7497 46.0661 39.6647 46.0111 39.5747 45.9911C39.4798 45.9662 39.3848 45.9712 39.2849 45.9762C39.065 45.9912 38.8451 46.0111 38.6252 46.0311C38.1505 46.0761 37.6757 46.1211 37.201 46.1611C37.166 46.1661 37.131 46.1661 37.106 46.191C37.0761 46.221 37.0761 46.266 37.0911 46.306C34.3175 46.4909 31.544 46.7358 28.7705 46.9107C27.9659 46.9606 27.1613 47.0106 26.3567 47.0456C25.5621 47.0806 24.7076 47.2005 23.918 47.1206C22.4788 46.9756 20.9946 47.4104 19.5303 47.4004C18.1511 47.3954 16.7518 47.1605 15.5225 46.5259C13.6634 45.5664 12.4391 43.6674 11.0798 42.0632C10.625 41.5285 10.2053 40.9538 9.83046 40.3541C9.79548 40.2942 9.76049 40.2342 9.72052 40.1742C9.06086 39.0698 8.56612 37.8654 8.36123 36.5961C8.35624 36.4862 8.33625 36.3762 8.31626 36.2813C8.13635 34.867 8.29627 33.4378 8.37123 32.0035C8.37623 31.9736 8.38122 31.9486 8.38122 31.9336C8.4212 31.7237 8.46118 31.5088 8.45119 31.2889C8.45119 31.2389 8.43619 31.174 8.40121 31.139C8.40121 31.114 8.40121 31.089 8.40121 31.064C8.4312 29.265 8.13635 27.331 6.912 26.0217C6.07744 25.1272 4.85309 24.6174 3.63873 24.6624C3.32389 24.6724 2.96908 24.7424 2.79417 25.0072C2.60927 25.2821 2.69922 25.6669 2.89912 25.9267C3.09901 26.1866 3.38886 26.3565 3.66372 26.5414C4.66319 27.2261 5.45777 28.2155 5.92252 29.3399C5.80258 30.1145 5.72762 30.8342 5.60269 31.6087C5.40779 32.8581 5.2129 34.1124 5.23788 35.3768C5.27786 37.2957 5.83257 39.1648 6.46723 40.9738C6.89701 42.1932 7.37675 43.4125 8.14135 44.447C8.9909 45.5964 10.1503 46.4659 11.2897 47.3204C11.7994 47.7002 12.3791 47.9901 12.8589 48.4149C13.2037 48.7147 13.5135 49.0695 13.7334 49.4693C13.2087 51.7431 12.2092 53.917 10.695 55.676C9.0009 57.645 6.63215 59.0642 4.0685 59.3941C3.55877 59.459 3.01406 59.494 2.60427 59.8089C2.20948 60.1087 2.01958 60.6034 1.85967 61.0732C1.12006 63.1971 0.505383 65.3709 0.0306342 67.5698C-0.0793077 68.0945 0.135579 68.5342 0.220534 69.024ZM38.7352 46.221C38.5503 46.231 38.3654 46.241 38.1855 46.251C38.2904 46.236 38.3904 46.226 38.4953 46.221C38.5753 46.216 38.6552 46.216 38.7352 46.221ZM52.283 70.2084C52.283 70.1934 52.278 70.1734 52.278 70.1584C52.308 70.1534 52.338 70.1484 52.368 70.1434C52.333 70.1584 52.308 70.1834 52.283 70.2084ZM47.3506 66.1055C47.2707 65.7357 47.2207 65.3559 47.1857 64.9761C47.4006 65.126 47.6105 65.281 47.8154 65.4409C49.0347 66.4004 50.0692 67.5997 50.8388 68.954V68.959C50.364 68.8541 49.8593 68.8891 49.4145 69.079C48.9498 68.7341 48.48 68.3743 48.1252 67.9146C47.7304 67.3848 47.4906 66.7502 47.3506 66.1055Z" fill="#EE8426"/>
<path d="M192.169 52.8378C193.228 52.3731 194.398 52.1632 195.427 51.6484C195.377 51.2437 195.392 50.8289 195.427 50.4141C195.427 50.3991 195.427 50.3891 195.427 50.3741C195.427 50.3641 195.427 50.3541 195.432 50.3491C195.472 49.8244 195.537 49.2947 195.522 48.765C195.497 47.7955 195.717 46.821 196.142 45.9515C196.142 45.9165 196.147 45.8865 196.162 45.8515C196.177 45.8115 196.202 45.7865 196.232 45.7666C196.362 45.5217 196.507 45.2868 196.667 45.0619C196.827 44.837 197.012 44.6072 197.041 44.3273C197.066 44.0874 196.967 43.8576 196.842 43.6527C196.557 43.1829 196.117 42.8131 195.612 42.5982C195.217 42.4333 194.778 42.3584 194.448 42.0885C194.178 41.8636 193.988 41.4938 193.988 41.134C193.958 41.119 193.933 41.099 193.923 41.069C193.913 41.0291 193.928 40.9941 193.958 40.9641C193.788 40.7792 193.698 40.5293 193.663 40.2795C193.628 40.0096 193.648 39.7397 193.673 39.4649C193.678 39.4049 193.683 39.3449 193.693 39.285C193.693 39.26 193.688 39.23 193.693 39.205C193.698 39.15 193.728 39.0901 193.773 39.0551C193.778 39.0451 193.788 39.0301 193.793 39.0201C193.953 38.8002 194.268 38.7902 194.528 38.7203C194.903 38.6153 195.212 38.3605 195.487 38.0906C195.762 37.8208 196.017 37.5209 196.337 37.301C196.822 36.9712 197.411 36.8513 197.981 36.7313C198.651 36.5964 199.33 36.4615 200.01 36.4815C199.995 36.4265 199.995 36.3665 199.995 36.3115C200.02 35.8268 200.045 35.3421 200.07 34.8623C200.075 34.7824 200.08 34.7074 200.105 34.6324C200.13 34.5575 200.185 34.4925 200.26 34.4675C200.37 34.4325 200.485 34.5025 200.55 34.5925C200.615 34.6874 200.64 34.7973 200.67 34.9073C200.73 35.1222 200.824 35.3321 200.949 35.522C200.999 35.5969 201.049 35.6669 201.094 35.7418C201.324 35.3121 201.559 34.8873 201.789 34.4575C201.854 34.3376 201.929 34.2077 202.054 34.1527C202.164 34.1027 202.299 34.1277 202.404 34.1877C202.509 34.2476 202.594 34.3426 202.664 34.4375C202.948 34.8173 203.113 35.2771 203.148 35.7518C203.163 35.8168 203.178 35.8868 203.198 35.9417C203.243 36.0967 203.293 36.2466 203.338 36.4015C203.443 36.7513 203.553 37.1011 203.658 37.4459C203.733 37.6958 203.813 37.9657 203.758 38.2205C203.908 38.4654 204.013 38.7553 204.098 39.0301C204.662 40.9041 204.742 42.8781 204.797 44.837C205.362 45.2019 205.717 45.7666 205.802 46.4312C207.016 47.0009 208.146 47.7305 209.275 48.4601C210.354 49.1548 211.429 49.8494 212.508 50.544C213.813 51.3836 215.047 52.2731 216.256 53.2426C217.591 50.9038 219.375 48.9499 220.979 46.786C221.384 46.2413 221.773 45.6866 222.058 45.0719C222.343 44.4572 222.518 43.7776 222.458 43.108C222.403 42.4333 222.093 41.7637 221.554 41.3589C221.129 41.0341 220.594 40.8941 220.059 40.8342C219.909 40.8192 219.754 40.8042 219.61 40.7542C219.465 40.7042 219.33 40.5993 219.28 40.4594C219.215 40.2745 219.3 40.0646 219.45 39.9346C219.595 39.8047 219.789 39.7447 219.979 39.7048C220.779 39.5348 221.638 39.6548 222.368 40.0296C223.098 40.4044 223.692 41.0241 224.052 41.7587C224.522 42.7132 224.592 43.8226 224.432 44.872C224.312 45.6566 224.047 46.4412 223.542 47.0509C221.648 49.3297 220.064 51.8583 218.835 54.5519C218.475 55.3415 217.741 56.261 218.115 57.0406C218.415 57.6703 218.445 58.3999 218.365 59.0945C218.285 59.7891 218.105 60.4688 218.01 61.1584C217.925 61.7681 217.825 62.5127 217.995 63.1124C218.085 63.4272 218.07 63.807 218.1 64.1319C218.13 64.4517 218.185 64.7865 218.185 65.1113C218.185 65.4012 218.29 65.656 218.4 65.9209C218.595 66.3807 218.83 66.8404 218.9 67.3352C218.97 67.8499 218.855 68.3696 218.735 68.8694C218.555 69.609 218.36 70.3386 218.13 71.0632C218.06 71.2881 217.98 71.518 217.806 71.6779C217.636 71.8378 217.316 71.8977 217.146 71.7378C216.811 71.9327 216.301 71.9127 216.006 71.6629C215.727 71.8378 215.327 71.7378 215.122 71.478C214.912 71.2081 214.902 70.8183 215.047 70.5085C215.187 70.1986 215.582 70.0937 215.777 69.8138C216.196 69.2042 216.236 68.3946 215.967 67.705C215.237 67.1453 214.552 66.5256 213.868 65.9059C213.553 65.6211 213.243 65.3412 212.933 65.0514C213.273 65.6361 213.578 66.2457 213.873 66.8504C214.033 67.1752 214.197 67.54 214.092 67.8899C213.983 68.2447 213.618 68.4546 213.288 68.6245C211.624 69.489 209.755 70.0237 208.271 71.1681C207.856 71.488 207.206 71.513 206.776 71.2081C206.447 71.358 205.982 71.348 205.677 71.1531C205.457 71.2581 205.177 71.1531 205.042 70.9483C204.912 70.7434 204.917 70.4735 205.022 70.2536C205.122 70.0337 205.307 69.8588 205.512 69.7289C206.082 69.3541 206.786 69.2641 207.431 69.494C208.176 69.0293 208.915 68.5695 209.66 68.1048C209.805 68.0148 209.96 67.9099 210.015 67.7499C210.08 67.56 209.975 67.3452 209.825 67.2102C209.67 67.0803 209.475 67.0053 209.29 66.9254C208.271 66.4706 207.481 65.6261 206.751 64.7815C205.857 63.7521 205.002 62.6976 204.178 61.6082C204.173 61.6032 204.168 61.5932 204.163 61.5882C203.968 61.998 203.843 62.4328 203.748 62.8725C203.748 62.9825 203.718 63.1074 203.678 63.2273C203.548 63.937 203.478 64.6616 203.338 65.3662C202.963 67.2202 201.534 68.8943 201.784 70.7683C201.809 70.9433 201.829 71.1232 201.814 71.2981C201.794 71.473 201.734 71.6529 201.604 71.7778C201.439 71.9377 201.189 71.9877 200.959 71.9527C200.73 71.9227 200.455 71.8178 200.245 71.7178C200.255 71.7778 200.215 71.8378 200.165 71.8728C200.115 71.9077 200.05 71.9177 199.99 71.9227C199.735 71.9477 199.47 71.8828 199.26 71.7378C199.095 71.8828 198.821 71.8278 198.676 71.6629C198.536 71.498 198.511 71.2581 198.556 71.0432C198.606 70.8283 198.716 70.6384 198.821 70.4485C199.245 69.6839 199.69 68.9193 199.795 68.0498C199.945 66.8204 200.055 65.6161 200.32 64.4017C200.425 63.922 200.51 63.4422 200.585 62.9625C200.58 62.9575 200.58 62.9525 200.575 62.9425C200.54 62.8525 200.585 62.7576 200.625 62.6676C200.645 62.5177 200.665 62.3678 200.685 62.2179C200.685 62.1679 200.68 62.1179 200.685 62.0679C200.69 62.018 200.7 61.973 200.715 61.928C200.715 61.913 200.72 61.893 200.72 61.878C200.765 61.4533 200.804 61.0285 200.839 60.6087C200.854 60.3988 200.869 60.1889 200.884 59.979C200.899 59.7592 200.914 59.5893 200.69 59.5093C200.455 59.4293 200.255 59.2544 200.065 59.0945C199.655 58.7547 199.3 58.3549 199.025 57.9001C198.761 57.4604 198.481 57.0256 198.196 56.5958C198.151 56.6108 198.101 56.6208 198.051 56.6258C197.896 56.6408 197.741 56.6058 197.591 56.5708C196.112 56.251 194.628 55.9312 193.149 55.6114C192.939 55.5664 192.719 55.5214 192.504 55.5464C192.274 55.5764 192.069 55.6813 191.864 55.7863C191.29 56.0811 190.61 56.356 190.395 56.9706C190.455 56.9806 190.5 57.0356 190.515 57.0906C190.53 57.1455 190.525 57.2105 190.51 57.2655C190.435 57.5803 190.13 57.8052 189.815 57.8752C189.935 58.0101 189.885 58.235 189.755 58.3599C189.625 58.4848 189.5 58.5698 189.321 58.6048C189.121 58.8396 188.731 58.8496 188.476 58.6747C188.221 58.4998 188.091 58.185 188.076 57.8752C188.061 57.5653 188.151 57.2605 188.256 56.9706C188.941 55.1516 190.38 53.6174 192.169 52.8378Z" fill="#EE8426"/>
<path d="M88.4839 46.601C88.4789 46.491 88.5039 46.3711 88.5289 46.2611C88.5739 46.0812 88.6339 45.9013 88.7038 45.7314C89.1286 44.4921 89.9831 43.3976 91.0676 42.643C91.6023 42.1683 92.2769 41.8585 92.9816 41.7435C93.7961 41.5086 94.6557 41.4187 95.5102 41.4587C95.6402 41.4137 95.7751 41.3887 95.915 41.3887C96.1999 41.3887 96.4797 41.4737 96.7496 41.5586C96.8295 41.5836 96.9145 41.6136 96.9844 41.6636C97.2643 41.7285 97.5441 41.8035 97.814 41.8984C99.813 42.5681 101.672 43.8124 102.846 45.5615C103.476 46.501 104.7 47.0007 105.805 46.7709C106.31 46.6659 106.759 46.426 107.209 46.1912C107.629 45.9713 108.169 45.8713 108.623 45.7364C111.207 44.9768 113.866 44.4821 116.549 44.2122C116.484 44.0823 116.809 44.0673 116.914 44.0523C117.119 44.0223 117.334 44.0123 117.539 44.0173C118.023 44.0373 118.508 44.1622 118.943 44.3821C120.157 44.647 121.347 45.0118 122.501 45.4665C123.4 45.8264 124.275 46.2411 125.155 46.6559C125.829 46.9758 126.579 47.1407 127.253 47.4555C128.218 47.0557 129.177 46.6609 130.142 46.2611C130.827 45.9763 131.541 45.6814 132.116 45.2017C132.141 45.0917 132.176 44.9868 132.221 44.8869C132.331 44.647 132.486 44.4321 132.646 44.2172C133.35 43.2777 134.085 42.3632 134.819 41.4487C135.249 40.914 135.679 40.3792 136.209 39.9495C136.494 40.2743 136.688 40.6791 136.773 41.0989C136.778 41.1138 136.778 41.1288 136.783 41.1438C136.818 41.1738 136.848 41.2138 136.873 41.2488C137.208 41.7535 137.208 42.3982 137.123 43.0029C137.478 42.9329 137.848 42.9379 138.198 43.0128C138.947 43.1728 139.612 43.6075 140.212 44.0873C140.516 44.3322 140.816 44.607 140.951 44.9718C141.056 45.2617 141.041 45.5815 141.126 45.8763C141.311 46.506 141.906 46.9108 142.345 47.4005C142.415 47.4755 142.485 47.5604 142.51 47.6604C142.535 47.7453 142.525 47.8403 142.475 47.9053C142.475 47.9302 142.47 47.9552 142.46 47.9802C142.44 48.0302 142.4 48.0652 142.35 48.0902C142.495 48.8098 142.196 49.6094 141.606 50.0491C141.081 50.4439 140.402 50.5489 139.762 50.6988C138.587 50.9836 137.458 51.4734 136.454 52.148C136.184 52.3279 135.914 52.5278 135.599 52.6178C135.404 52.6727 135.184 52.6777 134.994 52.6178C134.725 52.9926 134.445 53.3624 134.26 53.7872C133.995 54.3868 133.935 55.0515 133.725 55.6712C133.62 55.981 133.465 56.2858 133.25 56.5357C132.875 58.0399 133.065 59.684 133.81 61.0483C134.395 62.1128 135.279 62.9823 136.154 63.8318C137.253 64.9013 138.353 65.9707 139.447 67.0402C139.667 67.255 139.972 67.315 140.242 67.4649C140.496 67.6098 140.756 67.7598 140.956 67.9697C141.161 68.1796 141.306 68.4644 141.286 68.7542C141.266 69.0491 141.041 69.3339 140.751 69.3589C140.966 69.3389 141.046 69.6038 140.896 69.7587C140.746 69.9136 140.501 69.9136 140.292 69.8836C139.327 69.7537 138.473 69.214 137.653 68.6893C136.439 67.9097 135.229 67.1351 134.015 66.3555C133.29 65.8908 132.566 65.426 131.841 64.9563C131.696 64.9163 131.566 64.8363 131.476 64.7214C130.137 63.8518 128.808 62.9773 127.493 62.0728C127.099 61.8029 126.684 61.4931 126.419 61.1083C125.894 61.708 125.429 62.3576 125.035 63.0523C125.005 63.1022 124.98 63.1572 124.95 63.2072C124.935 63.2422 124.92 63.2771 124.895 63.3071C123.825 65.3261 123.371 67.6598 123.615 69.9336C123.99 69.7437 124.455 69.8936 124.775 70.1635C124.995 70.3484 125.165 70.5833 125.28 70.8431C125.339 70.9881 125.379 71.153 125.319 71.2929C125.26 71.4328 125.11 71.5028 125 71.3929C124.95 71.6077 124.69 71.7277 124.48 71.6627C124.27 71.5977 124.25 71.4678 124.225 71.2479C123.665 71.8576 122.651 71.9725 121.966 71.5078C121.392 71.118 121.107 70.4234 120.927 69.7487C120.387 67.6848 120.602 65.526 120.677 63.3821C120.647 63.2472 120.647 63.1022 120.692 62.9373C120.702 62.4426 120.707 61.9528 120.687 61.4581C120.662 60.8034 120.622 59.839 120.142 59.3242C119.692 58.8395 118.808 58.7195 118.198 58.6096C116.884 58.3647 115.56 58.1399 114.23 57.9999C112.821 60.6285 111.412 63.2621 110.003 65.8908C109.818 66.2356 109.628 66.6054 109.663 66.9902C109.703 67.4699 110.068 67.8497 110.427 68.1696C110.957 68.6493 111.517 69.0991 112.101 69.5138C112.796 69.1191 113.756 69.259 114.32 69.8237C114.495 69.9936 114.635 70.2085 114.68 70.4434C114.725 70.6832 114.665 70.9481 114.49 71.118C114.315 71.2879 114.015 71.3279 113.821 71.178C113.306 71.5378 112.561 71.5678 111.952 71.4278C110.003 70.9781 108.498 69.4739 107.109 68.0346C106.584 67.4949 106.05 66.9302 105.78 66.2256C105.58 65.7109 105.54 65.1462 105.5 64.5964C105.395 63.0922 105.29 61.588 105.185 60.0788C105.165 59.829 105.15 59.5741 105.165 59.3242C104.56 59.6091 103.961 59.9189 103.381 60.2537C101.342 61.4181 99.3032 62.5825 97.2643 63.7469C97.2293 63.7969 97.1643 63.8268 97.0944 63.8418C96.9794 63.9068 96.8645 63.9718 96.7546 64.0367C95.6102 64.6914 94.4408 65.366 93.6162 66.3955C92.6118 67.6448 92.237 69.269 91.8422 70.8232C91.7522 71.173 91.6473 71.5478 91.3774 71.7876C91.1075 72.0275 90.7577 72.0075 90.5778 71.6977C90.3979 71.8726 90.1231 71.9426 89.8832 71.8726C89.6433 71.8076 89.4434 71.6077 89.3785 71.3679C89.3135 71.128 89.3985 70.9331 89.5734 70.7532C89.3585 70.8481 89.0936 70.7382 88.9637 70.5433C88.8338 70.3484 88.8238 70.0935 88.8787 69.8687C88.9337 69.6438 89.0536 69.4389 89.1736 69.234C89.5434 68.5993 90.1181 68.1346 90.278 67.415C90.5978 65.9957 91.4324 64.7564 92.2469 63.552C93.961 61.0283 95.4103 58.3947 97.3642 56.046C98.2338 55.0015 99.1033 53.9571 99.9729 52.9126C100.348 52.4579 100.732 51.9931 100.902 51.4284C101.237 50.304 100.628 49.1296 99.9679 48.1601C99.2233 47.0657 98.3737 46.0213 97.2843 45.2767C96.7196 44.8919 96.0899 44.587 95.4303 44.4171C95.4203 44.4271 95.4053 44.4321 95.3953 44.4421C95.2054 44.537 94.9555 44.4621 94.8156 44.2972C94.3908 44.2422 93.966 44.2472 93.5413 44.3172C93.4363 44.3371 93.3314 44.3571 93.2264 44.3871C93.0515 44.5121 92.8666 44.642 92.6617 44.7119C92.5518 44.7519 92.4269 44.7719 92.3119 44.7619C91.9621 44.9618 91.6423 45.2217 91.3824 45.5215C91.3674 45.7114 91.2675 45.8913 91.1775 46.0562C91.0176 46.3461 90.8577 46.6359 90.6978 46.9258C90.6228 47.3056 90.6078 47.7004 90.4979 48.0752C90.5378 48.1501 90.5528 48.2351 90.5678 48.315C90.7078 49.0896 90.8177 49.8692 90.8977 50.6538C90.9226 50.8987 90.9476 51.1436 90.8827 51.3834C90.8177 51.6183 90.6478 51.8432 90.4129 51.8981C90.198 51.9481 89.9681 51.8582 89.8082 51.7083C89.6433 51.5583 89.5384 51.3584 89.4434 51.1635C89.0386 50.324 88.7738 49.4145 88.6688 48.49C88.6588 48.475 88.6488 48.46 88.6439 48.445C88.4589 48.1102 88.424 47.7154 88.429 47.3356C88.419 47.0907 88.444 46.8458 88.4839 46.601Z" fill="#EE8426"/>
</svg>
