<svg width="340" height="317" viewBox="0 0 340 317" fill="none" xmlns="http://www.w3.org/2000/svg">
<path d="M75.6738 33.4366C72.5154 38.1931 206.508 113.231 333.5 156.461" stroke="#FCA800"/>
<path d="M75.6735 46.4369C72.5151 51.1935 216.5 128.463 339.5 178.463" stroke="#FCA800"/>
<path d="M72.7033 56.998C69.5448 61.7545 211 141.963 335.5 195.463" stroke="#FCA800"/>
<path d="M151.404 60.4784C149.508 63.4206 229.144 104.143 313.735 135.33" stroke="#FCA800"/>
<path d="M79.5 86.4629L206 163.963L305 220.463" stroke="#FCA800"/>
<path d="M45 86.9629C102.8 129.523 237.519 225.207 302 257.463" stroke="#FCA800"/>
<path d="M12 87.4629C81.2778 148.933 187 238.463 302 296.463" stroke="#FCA800"/>
<path d="M65 88.9629C119.5 126.963 243.7 210.163 304.5 238.963" stroke="#FCA800"/>
<path d="M65 88.9629C119.5 126.963 243.7 210.163 304.5 238.963" stroke="#FCA800"/>
<path d="M101.5 89.4629L306 202.963" stroke="#FCA800"/>
<path d="M1 90.4629C76 163.463 190.5 262.963 306 316.463" stroke="#FCA800"/>
<path d="M32 90.4629C96.5 145.463 212.5 230.963 302 277.463" stroke="#FCA800"/>
</svg>
